ISO-10303-21;
HEADER;
/* Generated by software containing ST-Developer
 * from STEP Tools, Inc. (www.steptools.com) 
 */
/* OPTION: using custom renumber hook */

FILE_DESCRIPTION(
/* description */ ('STEP AP242 Edition 2',
'CAx-IF Rec.Pracs.---Representation and Presentation of Product Manufa
cturing Information (PMI)---4.0---2014-10-13',
'CAx-IF Rec.Pracs.---3D Tessellated Geometry---0.4---2014-09-14','2;1',
'CAx-IF Rec.Pracs.---User Defined Attributes---1.5---2016-08-15'),
/* implementation_level */ '2;1');

FILE_NAME(
/* name */ 'Part Studio 1 - Flange Connector (3)',
/* time_stamp */ '2026-01-09T19:18:48Z',
/* author */ (''),
/* organization */ (''),
/* preprocessor_version */ 'ST-DEVELOPER v20',
/* originating_system */ 'ONSHAPE BY PTC INC, 1.208',
/* authorisation */ '  ');

FILE_SCHEMA (('AP242_MANAGED_MODEL_BASED_3D_ENGINEERING_MIM_LF { 1 0 10303 442 3 1 4 }'));
ENDSEC;

DATA;
#10=SHAPE_REPRESENTATION_RELATIONSHIP('','',#169,#11);
#11=ADVANCED_BREP_SHAPE_REPRESENTATION('',(#167),#285);
#12=PLANE('',#174);
#13=PLANE('',#180);
#14=PLANE('',#190);
#15=ORIENTED_EDGE('',*,*,#43,.F.);
#16=ORIENTED_EDGE('',*,*,#44,.T.);
#17=ORIENTED_EDGE('',*,*,#45,.F.);
#18=ORIENTED_EDGE('',*,*,#46,.F.);
#19=ORIENTED_EDGE('',*,*,#47,.F.);
#20=ORIENTED_EDGE('',*,*,#48,.F.);
#21=ORIENTED_EDGE('',*,*,#49,.F.);
#22=ORIENTED_EDGE('',*,*,#43,.T.);
#23=ORIENTED_EDGE('',*,*,#50,.T.);
#24=ORIENTED_EDGE('',*,*,#51,.T.);
#25=ORIENTED_EDGE('',*,*,#52,.T.);
#26=ORIENTED_EDGE('',*,*,#53,.T.);
#27=ORIENTED_EDGE('',*,*,#44,.F.);
#28=ORIENTED_EDGE('',*,*,#54,.T.);
#29=ORIENTED_EDGE('',*,*,#55,.T.);
#30=ORIENTED_EDGE('',*,*,#54,.F.);
#31=ORIENTED_EDGE('',*,*,#49,.T.);
#32=ORIENTED_EDGE('',*,*,#56,.F.);
#33=ORIENTED_EDGE('',*,*,#55,.F.);
#34=ORIENTED_EDGE('',*,*,#56,.T.);
#35=ORIENTED_EDGE('',*,*,#48,.T.);
#36=ORIENTED_EDGE('',*,*,#53,.F.);
#37=ORIENTED_EDGE('',*,*,#47,.T.);
#38=ORIENTED_EDGE('',*,*,#52,.F.);
#39=ORIENTED_EDGE('',*,*,#46,.T.);
#40=ORIENTED_EDGE('',*,*,#51,.F.);
#41=ORIENTED_EDGE('',*,*,#45,.T.);
#42=ORIENTED_EDGE('',*,*,#50,.F.);
#43=EDGE_CURVE('',#57,#57,#71,.T.);
#44=EDGE_CURVE('',#58,#58,#72,.T.);
#45=EDGE_CURVE('',#59,#59,#73,.T.);
#46=EDGE_CURVE('',#60,#60,#74,.T.);
#47=EDGE_CURVE('',#61,#61,#75,.T.);
#48=EDGE_CURVE('',#62,#62,#76,.T.);
#49=EDGE_CURVE('',#63,#63,#77,.T.);
#50=EDGE_CURVE('',#64,#64,#78,.T.);
#51=EDGE_CURVE('',#65,#65,#79,.T.);
#52=EDGE_CURVE('',#66,#66,#80,.T.);
#53=EDGE_CURVE('',#67,#67,#81,.T.);
#54=EDGE_CURVE('',#68,#68,#82,.T.);
#55=EDGE_CURVE('',#69,#69,#83,.T.);
#56=EDGE_CURVE('',#70,#70,#84,.T.);
#57=VERTEX_POINT('',#248);
#58=VERTEX_POINT('',#250);
#59=VERTEX_POINT('',#253);
#60=VERTEX_POINT('',#255);
#61=VERTEX_POINT('',#257);
#62=VERTEX_POINT('',#259);
#63=VERTEX_POINT('',#261);
#64=VERTEX_POINT('',#264);
#65=VERTEX_POINT('',#266);
#66=VERTEX_POINT('',#268);
#67=VERTEX_POINT('',#270);
#68=VERTEX_POINT('',#272);
#69=VERTEX_POINT('',#275);
#70=VERTEX_POINT('',#278);
#71=CIRCLE('',#172,0.016);
#72=CIRCLE('',#173,0.016);
#73=CIRCLE('',#175,0.00195);
#74=CIRCLE('',#176,0.00195);
#75=CIRCLE('',#177,0.00195);
#76=CIRCLE('',#178,0.00195);
#77=CIRCLE('',#179,0.008);
#78=CIRCLE('',#181,0.00195);
#79=CIRCLE('',#182,0.00195);
#80=CIRCLE('',#183,0.00195);
#81=CIRCLE('',#184,0.00195);
#82=CIRCLE('',#185,0.004);
#83=CIRCLE('',#187,0.004);
#84=CIRCLE('',#189,0.008);
#85=EDGE_LOOP('',(#15));
#86=EDGE_LOOP('',(#16));
#87=EDGE_LOOP('',(#17));
#88=EDGE_LOOP('',(#18));
#89=EDGE_LOOP('',(#19));
#90=EDGE_LOOP('',(#20));
#91=EDGE_LOOP('',(#21));
#92=EDGE_LOOP('',(#22));
#93=EDGE_LOOP('',(#23));
#94=EDGE_LOOP('',(#24));
#95=EDGE_LOOP('',(#25));
#96=EDGE_LOOP('',(#26));
#97=EDGE_LOOP('',(#27));
#98=EDGE_LOOP('',(#28));
#99=EDGE_LOOP('',(#29));
#100=EDGE_LOOP('',(#30));
#101=EDGE_LOOP('',(#31));
#102=EDGE_LOOP('',(#32));
#103=EDGE_LOOP('',(#33));
#104=EDGE_LOOP('',(#34));
#105=EDGE_LOOP('',(#35));
#106=EDGE_LOOP('',(#36));
#107=EDGE_LOOP('',(#37));
#108=EDGE_LOOP('',(#38));
#109=EDGE_LOOP('',(#39));
#110=EDGE_LOOP('',(#40));
#111=EDGE_LOOP('',(#41));
#112=EDGE_LOOP('',(#42));
#113=FACE_BOUND('',#85,.T.);
#114=FACE_BOUND('',#86,.T.);
#115=FACE_BOUND('',#87,.T.);
#116=FACE_BOUND('',#88,.T.);
#117=FACE_BOUND('',#89,.T.);
#118=FACE_BOUND('',#90,.T.);
#119=FACE_BOUND('',#91,.T.);
#120=FACE_BOUND('',#92,.T.);
#121=FACE_BOUND('',#93,.T.);
#122=FACE_BOUND('',#94,.T.);
#123=FACE_BOUND('',#95,.T.);
#124=FACE_BOUND('',#96,.T.);
#125=FACE_BOUND('',#97,.T.);
#126=FACE_BOUND('',#98,.T.);
#127=FACE_BOUND('',#99,.T.);
#128=FACE_BOUND('',#100,.T.);
#129=FACE_BOUND('',#101,.T.);
#130=FACE_BOUND('',#102,.T.);
#131=FACE_BOUND('',#103,.T.);
#132=FACE_BOUND('',#104,.T.);
#133=FACE_BOUND('',#105,.T.);
#134=FACE_BOUND('',#106,.T.);
#135=FACE_BOUND('',#107,.T.);
#136=FACE_BOUND('',#108,.T.);
#137=FACE_BOUND('',#109,.T.);
#138=FACE_BOUND('',#110,.T.);
#139=FACE_BOUND('',#111,.T.);
#140=FACE_BOUND('',#112,.T.);
#141=CYLINDRICAL_SURFACE('',#171,0.016);
#142=CYLINDRICAL_SURFACE('',#186,0.004);
#143=CYLINDRICAL_SURFACE('',#188,0.008);
#144=CYLINDRICAL_SURFACE('',#191,0.00195);
#145=CYLINDRICAL_SURFACE('',#192,0.00195);
#146=CYLINDRICAL_SURFACE('',#193,0.00195);
#147=CYLINDRICAL_SURFACE('',#194,0.00195);
#148=ADVANCED_FACE('',(#113,#114),#141,.T.);
#149=ADVANCED_FACE('',(#115,#116,#117,#118,#119,#120),#12,.T.);
#150=ADVANCED_FACE('',(#121,#122,#123,#124,#125,#126),#13,.F.);
#151=ADVANCED_FACE('',(#127,#128),#142,.F.);
#152=ADVANCED_FACE('',(#129,#130),#143,.T.);
#153=ADVANCED_FACE('',(#131,#132),#14,.T.);
#154=ADVANCED_FACE('',(#133,#134),#144,.F.);
#155=ADVANCED_FACE('',(#135,#136),#145,.F.);
#156=ADVANCED_FACE('',(#137,#138),#146,.F.);
#157=ADVANCED_FACE('',(#139,#140),#147,.F.);
#158=CLOSED_SHELL('',(#148,#149,#150,#151,#152,#153,#154,#155,#156,#157));
#159=STYLED_ITEM('',(#160),#167);
#160=PRESENTATION_STYLE_ASSIGNMENT((#161));
#161=SURFACE_STYLE_USAGE(.BOTH.,#162);
#162=SURFACE_SIDE_STYLE('',(#163));
#163=SURFACE_STYLE_FILL_AREA(#164);
#164=FILL_AREA_STYLE('',(#165));
#165=FILL_AREA_STYLE_COLOUR('',#166);
#166=COLOUR_RGB('',0.901960784313726,0.901960784313726,0.901960784313726);
#167=MANIFOLD_SOLID_BREP('Flange Connector',#158);
#168=SHAPE_DEFINITION_REPRESENTATION(#290,#169);
#169=SHAPE_REPRESENTATION('Flange Connector',(#170),#285);
#170=AXIS2_PLACEMENT_3D('',#245,#195,#196);
#171=AXIS2_PLACEMENT_3D('',#246,#197,#198);
#172=AXIS2_PLACEMENT_3D('',#247,#199,#200);
#173=AXIS2_PLACEMENT_3D('',#249,#201,#202);
#174=AXIS2_PLACEMENT_3D('',#251,#203,#204);
#175=AXIS2_PLACEMENT_3D('',#252,#205,#206);
#176=AXIS2_PLACEMENT_3D('',#254,#207,#208);
#177=AXIS2_PLACEMENT_3D('',#256,#209,#210);
#178=AXIS2_PLACEMENT_3D('',#258,#211,#212);
#179=AXIS2_PLACEMENT_3D('',#260,#213,#214);
#180=AXIS2_PLACEMENT_3D('',#262,#215,#216);
#181=AXIS2_PLACEMENT_3D('',#263,#217,#218);
#182=AXIS2_PLACEMENT_3D('',#265,#219,#220);
#183=AXIS2_PLACEMENT_3D('',#267,#221,#222);
#184=AXIS2_PLACEMENT_3D('',#269,#223,#224);
#185=AXIS2_PLACEMENT_3D('',#271,#225,#226);
#186=AXIS2_PLACEMENT_3D('',#273,#227,#228);
#187=AXIS2_PLACEMENT_3D('',#274,#229,#230);
#188=AXIS2_PLACEMENT_3D('',#276,#231,#232);
#189=AXIS2_PLACEMENT_3D('',#277,#233,#234);
#190=AXIS2_PLACEMENT_3D('',#279,#235,#236);
#191=AXIS2_PLACEMENT_3D('',#280,#237,#238);
#192=AXIS2_PLACEMENT_3D('',#281,#239,#240);
#193=AXIS2_PLACEMENT_3D('',#282,#241,#242);
#194=AXIS2_PLACEMENT_3D('',#283,#243,#244);
#195=DIRECTION('',(0.,0.,1.));
#196=DIRECTION('',(1.,0.,0.));
#197=DIRECTION('',(0.,1.,-6.12323399573677E-17));
#198=DIRECTION('',(0.,6.12323399573677E-17,1.));
#199=DIRECTION('',(0.,-1.,6.12323399573677E-17));
#200=DIRECTION('',(0.,-6.12323399573677E-17,-1.));
#201=DIRECTION('',(0.,-1.,6.12323399573677E-17));
#202=DIRECTION('',(0.,-6.12323399573677E-17,-1.));
#203=DIRECTION('',(0.,-1.,6.12323399573677E-17));
#204=DIRECTION('',(0.,-6.12323399573677E-17,-1.));
#205=DIRECTION('',(0.,-1.,6.12323399573677E-17));
#206=DIRECTION('',(0.,-6.12323399573677E-17,-1.));
#207=DIRECTION('',(0.,-1.,6.12323399573677E-17));
#208=DIRECTION('',(0.,-6.12323399573677E-17,-1.));
#209=DIRECTION('',(0.,-1.,6.12323399573677E-17));
#210=DIRECTION('',(0.,-6.12323399573677E-17,-1.));
#211=DIRECTION('',(0.,-1.,6.12323399573677E-17));
#212=DIRECTION('',(0.,-6.12323399573677E-17,-1.));
#213=DIRECTION('',(0.,-1.,6.12323399573677E-17));
#214=DIRECTION('',(0.,-6.12323399573677E-17,-1.));
#215=DIRECTION('',(0.,-1.,6.12323399573677E-17));
#216=DIRECTION('',(0.,-6.12323399573677E-17,-1.));
#217=DIRECTION('',(0.,-1.,6.12323399573677E-17));
#218=DIRECTION('',(0.,-6.12323399573677E-17,-1.));
#219=DIRECTION('',(0.,-1.,6.12323399573677E-17));
#220=DIRECTION('',(0.,-6.12323399573677E-17,-1.));
#221=DIRECTION('',(0.,-1.,6.12323399573677E-17));
#222=DIRECTION('',(0.,-6.12323399573677E-17,-1.));
#223=DIRECTION('',(0.,-1.,6.12323399573677E-17));
#224=DIRECTION('',(0.,-6.12323399573677E-17,-1.));
#225=DIRECTION('',(0.,-1.,6.12323399573677E-17));
#226=DIRECTION('',(0.,-6.12323399573677E-17,-1.));
#227=DIRECTION('',(0.,1.,-6.12323399573677E-17));
#228=DIRECTION('',(0.,6.12323399573677E-17,1.));
#229=DIRECTION('',(0.,-1.,6.12323399573677E-17));
#230=DIRECTION('',(0.,-6.12323399573677E-17,-1.));
#231=DIRECTION('',(0.,1.,-6.12323399573677E-17));
#232=DIRECTION('',(0.,6.12323399573677E-17,1.));
#233=DIRECTION('',(0.,-1.,6.12323399573677E-17));
#234=DIRECTION('',(0.,-6.12323399573677E-17,-1.));
#235=DIRECTION('',(0.,-1.,6.12323399573677E-17));
#236=DIRECTION('',(0.,-6.12323399573677E-17,-1.));
#237=DIRECTION('',(0.,-1.,6.12323399573677E-17));
#238=DIRECTION('',(0.,-6.12323399573677E-17,-1.));
#239=DIRECTION('',(0.,-1.,6.12323399573677E-17));
#240=DIRECTION('',(0.,-6.12323399573677E-17,-1.));
#241=DIRECTION('',(0.,-1.,6.12323399573677E-17));
#242=DIRECTION('',(0.,-6.12323399573677E-17,-1.));
#243=DIRECTION('',(0.,-1.,6.12323399573677E-17));
#244=DIRECTION('',(0.,-6.12323399573677E-17,-1.));
#245=CARTESIAN_POINT('',(0.,0.,0.));
#246=CARTESIAN_POINT('',(-0.04215,-0.003,0.0155));
#247=CARTESIAN_POINT('',(-0.04215,-0.003,0.0155));
#248=CARTESIAN_POINT('',(-0.04215,-0.003,-0.0005));
#249=CARTESIAN_POINT('',(-0.04215,1.04943294861185E-18,0.0155));
#250=CARTESIAN_POINT('',(-0.04215,6.97155092939669E-20,-0.0005));
#251=CARTESIAN_POINT('',(-0.04215,-0.003,0.0155));
#252=CARTESIAN_POINT('',(-0.05415,-0.003,0.0155));
#253=CARTESIAN_POINT('',(-0.05415,-0.003,0.01355));
#254=CARTESIAN_POINT('',(-0.04215,-0.003,0.00350000000000006));
#255=CARTESIAN_POINT('',(-0.04215,-0.003,0.00155000000000006));
#256=CARTESIAN_POINT('',(-0.03015,-0.003,0.0155));
#257=CARTESIAN_POINT('',(-0.03015,-0.003,0.01355));
#258=CARTESIAN_POINT('',(-0.04215,-0.003,0.0275));
#259=CARTESIAN_POINT('',(-0.04215,-0.003,0.02555));
#260=CARTESIAN_POINT('',(-0.04215,-0.003,0.0155));
#261=CARTESIAN_POINT('',(-0.04215,-0.003,0.0075));
#262=CARTESIAN_POINT('',(-0.04215,1.04943294861185E-18,0.0155));
#263=CARTESIAN_POINT('',(-0.05415,1.04943294861185E-18,0.0155));
#264=CARTESIAN_POINT('',(-0.05415,9.30029885694983E-19,0.01355));
#265=CARTESIAN_POINT('',(-0.04215,3.14644869123438E-19,0.00350000000000006));
#266=CARTESIAN_POINT('',(-0.04215,1.95241806206571E-19,0.00155000000000006));
#267=CARTESIAN_POINT('',(-0.03015,1.04943294861185E-18,0.0155));
#268=CARTESIAN_POINT('',(-0.03015,9.30029885694983E-19,0.01355));
#269=CARTESIAN_POINT('',(-0.04215,1.78422102810026E-18,0.0275));
#270=CARTESIAN_POINT('',(-0.04215,1.66481796518339E-18,0.02555));
#271=CARTESIAN_POINT('',(-0.04215,1.04943294861185E-18,0.0155));
#272=CARTESIAN_POINT('',(-0.04215,8.04503588782379E-19,0.0115));
#273=CARTESIAN_POINT('',(-0.04215,-0.013,0.0155));
#274=CARTESIAN_POINT('',(-0.04215,-0.013,0.0155));
#275=CARTESIAN_POINT('',(-0.04215,-0.013,0.0115));
#276=CARTESIAN_POINT('',(-0.04215,-0.013,0.0155));
#277=CARTESIAN_POINT('',(-0.04215,-0.013,0.0155));
#278=CARTESIAN_POINT('',(-0.04215,-0.013,0.0075));
#279=CARTESIAN_POINT('',(-0.04215,-0.013,0.0155));
#280=CARTESIAN_POINT('',(-0.04215,0.022,0.0275));
#281=CARTESIAN_POINT('',(-0.03015,0.022,0.0155));
#282=CARTESIAN_POINT('',(-0.04215,0.022,0.00350000000000006));
#283=CARTESIAN_POINT('',(-0.05415,0.022,0.0155));
#284=MECHANICAL_DESIGN_GEOMETRIC_PRESENTATION_REPRESENTATION('',(#159),
#285);
#285=(
GEOMETRIC_REPRESENTATION_CONTEXT(3)
GLOBAL_UNCERTAINTY_ASSIGNED_CONTEXT((#286))
GLOBAL_UNIT_ASSIGNED_CONTEXT((#289,#288,#287))
REPRESENTATION_CONTEXT('Flange Connector','TOP_LEVEL_ASSEMBLY_PART')
);
#286=UNCERTAINTY_MEASURE_WITH_UNIT(LENGTH_MEASURE(1.E-8),#289,
'DISTANCE_ACCURACY_VALUE','Maximum Tolerance applied to model');
#287=(
NAMED_UNIT(*)
SI_UNIT($,.STERADIAN.)
SOLID_ANGLE_UNIT()
);
#288=(
NAMED_UNIT(*)
PLANE_ANGLE_UNIT()
SI_UNIT($,.RADIAN.)
);
#289=(
LENGTH_UNIT()
NAMED_UNIT(*)
SI_UNIT($,.METRE.)
);
#290=PRODUCT_DEFINITION_SHAPE('','',#291);
#291=PRODUCT_DEFINITION('','',#293,#292);
#292=PRODUCT_DEFINITION_CONTEXT('',#299,'design');
#293=PRODUCT_DEFINITION_FORMATION_WITH_SPECIFIED_SOURCE('','',#295,
 .NOT_KNOWN.);
#294=PRODUCT_RELATED_PRODUCT_CATEGORY('','',(#295));
#295=PRODUCT('Flange Connector','Flange Connector','Flange Connector',(#297));
#296=PRODUCT_CATEGORY('','');
#297=PRODUCT_CONTEXT('',#299,'mechanical');
#298=APPLICATION_PROTOCOL_DEFINITION('international standard',
'ap242_managed_model_based_3d_engineering',2020,#299);
#299=APPLICATION_CONTEXT('managed model based 3d engineering');
ENDSEC;
END-ISO-10303-21;
