ISO-10303-21;
HEADER;
/* Generated by software containing ST-Developer
 * from STEP Tools, Inc. (www.steptools.com) 
 */
/* OPTION: using custom renumber hook */

FILE_DESCRIPTION(
/* description */ ('STEP AP242 Edition 2',
'CAx-IF Rec.Pracs.---Representation and Presentation of Product Manufa
cturing Information (PMI)---4.0---2014-10-13',
'CAx-IF Rec.Pracs.---3D Tessellated Geometry---0.4---2014-09-14','2;1',
'CAx-IF Rec.Pracs.---User Defined Attributes---1.5---2016-08-15'),
/* implementation_level */ '2;1');

FILE_NAME(
/* name */ 'Part Studio 1 - Syringe Clamp',
/* time_stamp */ '2026-01-09T19:18:49Z',
/* author */ (''),
/* organization */ (''),
/* preprocessor_version */ 'ST-DEVELOPER v20',
/* originating_system */ 'ONSHAPE BY PTC INC, 1.208',
/* authorisation */ '  ');

FILE_SCHEMA (('AP242_MANAGED_MODEL_BASED_3D_ENGINEERING_MIM_LF { 1 0 10303 442 3 1 4 }'));
ENDSEC;

DATA;
#10=SHAPE_REPRESENTATION_RELATIONSHIP('','',#227,#11);
#11=ADVANCED_BREP_SHAPE_REPRESENTATION('',(#225),#457);
#12=CYLINDRICAL_SURFACE('',#236,0.002);
#13=CYLINDRICAL_SURFACE('',#237,0.002);
#14=CYLINDRICAL_SURFACE('',#238,0.002);
#15=CYLINDRICAL_SURFACE('',#239,0.002);
#16=CIRCLE('',#230,0.002);
#17=CIRCLE('',#231,0.002);
#18=CIRCLE('',#232,0.002);
#19=CIRCLE('',#233,0.002);
#20=PLANE('',#229);
#21=PLANE('',#234);
#22=PLANE('',#235);
#23=LINE('',#306,#31);
#24=LINE('',#314,#32);
#25=LINE('',#360,#33);
#26=LINE('',#368,#34);
#27=LINE('',#386,#35);
#28=LINE('',#389,#36);
#29=LINE('',#391,#37);
#30=LINE('',#393,#38);
#31=VECTOR('',#242,1.);
#32=VECTOR('',#243,1.);
#33=VECTOR('',#244,1.);
#34=VECTOR('',#245,1.);
#35=VECTOR('',#252,1.);
#36=VECTOR('',#253,1.);
#37=VECTOR('',#254,1.);
#38=VECTOR('',#255,1.);
#39=ORIENTED_EDGE('',*,*,#91,.T.);
#40=ORIENTED_EDGE('',*,*,#92,.F.);
#41=ORIENTED_EDGE('',*,*,#93,.T.);
#42=ORIENTED_EDGE('',*,*,#94,.T.);
#43=ORIENTED_EDGE('',*,*,#95,.F.);
#44=ORIENTED_EDGE('',*,*,#96,.F.);
#45=ORIENTED_EDGE('',*,*,#97,.T.);
#46=ORIENTED_EDGE('',*,*,#98,.F.);
#47=ORIENTED_EDGE('',*,*,#99,.T.);
#48=ORIENTED_EDGE('',*,*,#100,.T.);
#49=ORIENTED_EDGE('',*,*,#101,.F.);
#50=ORIENTED_EDGE('',*,*,#102,.F.);
#51=ORIENTED_EDGE('',*,*,#103,.T.);
#52=ORIENTED_EDGE('',*,*,#104,.T.);
#53=ORIENTED_EDGE('',*,*,#105,.F.);
#54=ORIENTED_EDGE('',*,*,#106,.T.);
#55=ORIENTED_EDGE('',*,*,#107,.T.);
#56=ORIENTED_EDGE('',*,*,#108,.F.);
#57=ORIENTED_EDGE('',*,*,#109,.F.);
#58=ORIENTED_EDGE('',*,*,#110,.F.);
#59=ORIENTED_EDGE('',*,*,#111,.F.);
#60=ORIENTED_EDGE('',*,*,#101,.T.);
#61=ORIENTED_EDGE('',*,*,#112,.T.);
#62=ORIENTED_EDGE('',*,*,#93,.F.);
#63=ORIENTED_EDGE('',*,*,#99,.F.);
#64=ORIENTED_EDGE('',*,*,#113,.T.);
#65=ORIENTED_EDGE('',*,*,#105,.T.);
#66=ORIENTED_EDGE('',*,*,#114,.F.);
#67=ORIENTED_EDGE('',*,*,#115,.F.);
#68=ORIENTED_EDGE('',*,*,#95,.T.);
#69=ORIENTED_EDGE('',*,*,#116,.T.);
#70=ORIENTED_EDGE('',*,*,#107,.F.);
#71=ORIENTED_EDGE('',*,*,#94,.F.);
#72=ORIENTED_EDGE('',*,*,#112,.F.);
#73=ORIENTED_EDGE('',*,*,#100,.F.);
#74=ORIENTED_EDGE('',*,*,#114,.T.);
#75=ORIENTED_EDGE('',*,*,#108,.T.);
#76=ORIENTED_EDGE('',*,*,#116,.F.);
#77=ORIENTED_EDGE('',*,*,#111,.T.);
#78=ORIENTED_EDGE('',*,*,#92,.T.);
#79=ORIENTED_EDGE('',*,*,#115,.T.);
#80=ORIENTED_EDGE('',*,*,#106,.F.);
#81=ORIENTED_EDGE('',*,*,#113,.F.);
#82=ORIENTED_EDGE('',*,*,#98,.T.);
#83=ORIENTED_EDGE('',*,*,#104,.F.);
#84=ORIENTED_EDGE('',*,*,#102,.T.);
#85=ORIENTED_EDGE('',*,*,#109,.T.);
#86=ORIENTED_EDGE('',*,*,#91,.F.);
#87=ORIENTED_EDGE('',*,*,#103,.F.);
#88=ORIENTED_EDGE('',*,*,#96,.T.);
#89=ORIENTED_EDGE('',*,*,#110,.T.);
#90=ORIENTED_EDGE('',*,*,#97,.F.);
#91=EDGE_CURVE('',#117,#117,#137,.T.);
#92=EDGE_CURVE('',#118,#119,#138,.T.);
#93=EDGE_CURVE('',#118,#120,#23,.T.);
#94=EDGE_CURVE('',#120,#121,#139,.T.);
#95=EDGE_CURVE('',#119,#121,#24,.T.);
#96=EDGE_CURVE('',#122,#122,#140,.T.);
#97=EDGE_CURVE('',#123,#123,#141,.T.);
#98=EDGE_CURVE('',#124,#125,#142,.T.);
#99=EDGE_CURVE('',#124,#126,#25,.T.);
#100=EDGE_CURVE('',#126,#127,#143,.T.);
#101=EDGE_CURVE('',#125,#127,#26,.T.);
#102=EDGE_CURVE('',#128,#128,#144,.T.);
#103=EDGE_CURVE('',#129,#129,#16,.T.);
#104=EDGE_CURVE('',#130,#130,#17,.T.);
#105=EDGE_CURVE('',#131,#132,#27,.T.);
#106=EDGE_CURVE('',#131,#133,#28,.T.);
#107=EDGE_CURVE('',#133,#134,#29,.T.);
#108=EDGE_CURVE('',#132,#134,#30,.T.);
#109=EDGE_CURVE('',#135,#135,#18,.T.);
#110=EDGE_CURVE('',#136,#136,#19,.T.);
#111=EDGE_CURVE('',#125,#118,#145,.T.);
#112=EDGE_CURVE('',#127,#120,#146,.T.);
#113=EDGE_CURVE('',#124,#131,#147,.T.);
#114=EDGE_CURVE('',#126,#132,#148,.T.);
#115=EDGE_CURVE('',#119,#133,#149,.T.);
#116=EDGE_CURVE('',#121,#134,#150,.T.);
#117=VERTEX_POINT('',#298);
#118=VERTEX_POINT('',#304);
#119=VERTEX_POINT('',#305);
#120=VERTEX_POINT('',#307);
#121=VERTEX_POINT('',#313);
#122=VERTEX_POINT('',#326);
#123=VERTEX_POINT('',#352);
#124=VERTEX_POINT('',#358);
#125=VERTEX_POINT('',#359);
#126=VERTEX_POINT('',#361);
#127=VERTEX_POINT('',#367);
#128=VERTEX_POINT('',#380);
#129=VERTEX_POINT('',#383);
#130=VERTEX_POINT('',#385);
#131=VERTEX_POINT('',#387);
#132=VERTEX_POINT('',#388);
#133=VERTEX_POINT('',#390);
#134=VERTEX_POINT('',#392);
#135=VERTEX_POINT('',#395);
#136=VERTEX_POINT('',#397);
#137=B_SPLINE_CURVE_WITH_KNOTS('',3,(#287,#288,#289,#290,#291,#292,#293,
#294,#295,#296,#297),.UNSPECIFIED.,.T.,.F.,(1,1,1,1,1,1,1,1,1,1,1,1,1,1,
1),(-0.00475623085417741,-0.00317082056945161,-0.0015854102847258,0.,0.0015854102847258,
0.00317082056945161,0.00475623085417741,0.00634164113890322,0.00792705142362903,
0.00951246170835483,0.0110978719930806,0.0126832822778064,0.0142686925625322,
0.015854102847258,0.0174395131319839),.UNSPECIFIED.);
#138=B_SPLINE_CURVE_WITH_KNOTS('',3,(#299,#300,#301,#302,#303),
 .UNSPECIFIED.,.F.,.F.,(4,1,4),(0.599595379197989,0.734651324452726,1.),
 .UNSPECIFIED.);
#139=B_SPLINE_CURVE_WITH_KNOTS('',3,(#308,#309,#310,#311,#312),
 .UNSPECIFIED.,.F.,.F.,(4,1,4),(0.599595379197989,0.734651324452726,1.),
 .UNSPECIFIED.);
#140=B_SPLINE_CURVE_WITH_KNOTS('',3,(#315,#316,#317,#318,#319,#320,#321,
#322,#323,#324,#325),.UNSPECIFIED.,.T.,.F.,(1,1,1,1,1,1,1,1,1,1,1,1,1,1,
1),(-0.00475849028032322,-0.00317232685354881,-0.00158616342677441,0.,0.00158616342677441,
0.00317232685354881,0.00475849028032322,0.00634465370709762,0.00793081713387203,
0.00951698056064644,0.0111031439874208,0.0126893074141952,0.0142754708409697,
0.0158616342677441,0.0174477976945185),.UNSPECIFIED.);
#141=B_SPLINE_CURVE_WITH_KNOTS('',3,(#341,#342,#343,#344,#345,#346,#347,
#348,#349,#350,#351),.UNSPECIFIED.,.T.,.F.,(1,1,1,1,1,1,1,1,1,1,1,1,1,1,
1),(-0.0047584902803232,-0.0031723268535488,-0.0015861634267744,0.,0.0015861634267744,
0.0031723268535488,0.0047584902803232,0.00634465370709761,0.00793081713387201,
0.00951698056064641,0.0111031439874208,0.0126893074141952,0.0142754708409696,
0.015861634267744,0.0174477976945184),.UNSPECIFIED.);
#142=B_SPLINE_CURVE_WITH_KNOTS('',3,(#353,#354,#355,#356,#357),
 .UNSPECIFIED.,.F.,.F.,(4,1,4),(0.,0.265348675547274,0.400404620802013),
 .UNSPECIFIED.);
#143=B_SPLINE_CURVE_WITH_KNOTS('',3,(#362,#363,#364,#365,#366),
 .UNSPECIFIED.,.F.,.F.,(4,1,4),(0.,0.265348675547274,0.400404620802013),
 .UNSPECIFIED.);
#144=B_SPLINE_CURVE_WITH_KNOTS('',3,(#369,#370,#371,#372,#373,#374,#375,
#376,#377,#378,#379),.UNSPECIFIED.,.T.,.F.,(1,1,1,1,1,1,1,1,1,1,1,1,1,1,
1),(-0.00475623085417744,-0.00317082056945162,-0.00158541028472581,0.,0.00158541028472581,
0.00317082056945162,0.00475623085417744,0.00634164113890325,0.00792705142362906,
0.00951246170835487,0.0110978719930807,0.0126832822778065,0.0142686925625323,
0.0158541028472581,0.0174395131319839),.UNSPECIFIED.);
#145=B_SPLINE_CURVE_WITH_KNOTS('',3,(#408,#409,#410,#411,#412),
 .UNSPECIFIED.,.F.,.F.,(4,1,4),(0.400404620802013,0.5,0.599595379197989),
 .QUASI_UNIFORM_KNOTS.);
#146=B_SPLINE_CURVE_WITH_KNOTS('',3,(#413,#414,#415,#416,#417),
 .UNSPECIFIED.,.F.,.F.,(4,1,4),(0.400404620802013,0.5,0.599595379197989),
 .QUASI_UNIFORM_KNOTS.);
#147=B_SPLINE_CURVE_WITH_KNOTS('',3,(#426,#427,#428,#429),.UNSPECIFIED.,
 .F.,.F.,(4,4),(0.,1.),.PIECEWISE_BEZIER_KNOTS.);
#148=B_SPLINE_CURVE_WITH_KNOTS('',3,(#430,#431,#432,#433),.UNSPECIFIED.,
 .F.,.F.,(4,4),(0.,1.),.PIECEWISE_BEZIER_KNOTS.);
#149=B_SPLINE_CURVE_WITH_KNOTS('',3,(#442,#443,#444,#445),.UNSPECIFIED.,
 .F.,.F.,(4,4),(0.,1.),.PIECEWISE_BEZIER_KNOTS.);
#150=B_SPLINE_CURVE_WITH_KNOTS('',3,(#446,#447,#448,#449),.UNSPECIFIED.,
 .F.,.F.,(4,4),(0.,1.),.PIECEWISE_BEZIER_KNOTS.);
#151=EDGE_LOOP('',(#39));
#152=EDGE_LOOP('',(#40,#41,#42,#43));
#153=EDGE_LOOP('',(#44));
#154=EDGE_LOOP('',(#45));
#155=EDGE_LOOP('',(#46,#47,#48,#49));
#156=EDGE_LOOP('',(#50));
#157=EDGE_LOOP('',(#51));
#158=EDGE_LOOP('',(#52));
#159=EDGE_LOOP('',(#53,#54,#55,#56));
#160=EDGE_LOOP('',(#57));
#161=EDGE_LOOP('',(#58));
#162=EDGE_LOOP('',(#59,#60,#61,#62));
#163=EDGE_LOOP('',(#63,#64,#65,#66));
#164=EDGE_LOOP('',(#67,#68,#69,#70));
#165=EDGE_LOOP('',(#71,#72,#73,#74,#75,#76));
#166=EDGE_LOOP('',(#77,#78,#79,#80,#81,#82));
#167=EDGE_LOOP('',(#83));
#168=EDGE_LOOP('',(#84));
#169=EDGE_LOOP('',(#85));
#170=EDGE_LOOP('',(#86));
#171=EDGE_LOOP('',(#87));
#172=EDGE_LOOP('',(#88));
#173=EDGE_LOOP('',(#89));
#174=EDGE_LOOP('',(#90));
#175=FACE_BOUND('',#151,.T.);
#176=FACE_BOUND('',#152,.T.);
#177=FACE_BOUND('',#153,.T.);
#178=FACE_BOUND('',#154,.T.);
#179=FACE_BOUND('',#155,.T.);
#180=FACE_BOUND('',#156,.T.);
#181=FACE_BOUND('',#157,.T.);
#182=FACE_BOUND('',#158,.T.);
#183=FACE_BOUND('',#159,.T.);
#184=FACE_BOUND('',#160,.T.);
#185=FACE_BOUND('',#161,.T.);
#186=FACE_BOUND('',#162,.T.);
#187=FACE_BOUND('',#163,.T.);
#188=FACE_BOUND('',#164,.T.);
#189=FACE_BOUND('',#165,.T.);
#190=FACE_BOUND('',#166,.T.);
#191=FACE_BOUND('',#167,.T.);
#192=FACE_BOUND('',#168,.T.);
#193=FACE_BOUND('',#169,.T.);
#194=FACE_BOUND('',#170,.T.);
#195=FACE_BOUND('',#171,.T.);
#196=FACE_BOUND('',#172,.T.);
#197=FACE_BOUND('',#173,.T.);
#198=FACE_BOUND('',#174,.T.);
#199=B_SPLINE_SURFACE_WITH_KNOTS('',3,1,((#273,#274),(#275,#276),(#277,
#278),(#279,#280),(#281,#282),(#283,#284),(#285,#286)),
 .SURF_OF_LINEAR_EXTRUSION.,.F.,.F.,.F.,(4,1,1,1,4),(2,2),(0.599595379197989,
0.699696534398492,0.799797689598994,0.899898844799497,1.),(0.,1.),
 .UNSPECIFIED.);
#200=B_SPLINE_SURFACE_WITH_KNOTS('',3,1,((#327,#328),(#329,#330),(#331,
#332),(#333,#334),(#335,#336),(#337,#338),(#339,#340)),
 .SURF_OF_LINEAR_EXTRUSION.,.F.,.F.,.F.,(4,1,1,1,4),(2,2),(0.,0.100101155200503,
0.200202310401006,0.300303465601509,0.400404620802013),(0.,1.),
 .UNSPECIFIED.);
#201=B_SPLINE_SURFACE_WITH_KNOTS('',3,1,((#398,#399),(#400,#401),(#402,
#403),(#404,#405),(#406,#407)),.SURF_OF_LINEAR_EXTRUSION.,.F.,.F.,.F.,(4,
1,4),(2,2),(0.400404620802013,0.500000000000001,0.599595379197989),(0.,
1.),.UNSPECIFIED.);
#202=B_SPLINE_SURFACE_WITH_KNOTS('',3,1,((#418,#419),(#420,#421),(#422,
#423),(#424,#425)),.SURF_OF_LINEAR_EXTRUSION.,.F.,.F.,.F.,(4,4),(2,2),(0.,
1.),(0.,1.),.PIECEWISE_BEZIER_KNOTS.);
#203=B_SPLINE_SURFACE_WITH_KNOTS('',3,1,((#434,#435),(#436,#437),(#438,
#439),(#440,#441)),.SURF_OF_LINEAR_EXTRUSION.,.F.,.F.,.F.,(4,4),(2,2),(0.,
1.),(0.,1.),.PIECEWISE_BEZIER_KNOTS.);
#204=ADVANCED_FACE('',(#175,#176,#177),#199,.F.);
#205=ADVANCED_FACE('',(#178,#179,#180),#200,.F.);
#206=ADVANCED_FACE('',(#181,#182,#183,#184,#185),#20,.T.);
#207=ADVANCED_FACE('',(#186),#201,.F.);
#208=ADVANCED_FACE('',(#187),#202,.T.);
#209=ADVANCED_FACE('',(#188),#203,.F.);
#210=ADVANCED_FACE('',(#189),#21,.T.);
#211=ADVANCED_FACE('',(#190),#22,.T.);
#212=ADVANCED_FACE('',(#191,#192),#12,.F.);
#213=ADVANCED_FACE('',(#193,#194),#13,.F.);
#214=ADVANCED_FACE('',(#195,#196),#14,.F.);
#215=ADVANCED_FACE('',(#197,#198),#15,.F.);
#216=CLOSED_SHELL('',(#204,#205,#206,#207,#208,#209,#210,#211,#212,#213,
#214,#215));
#217=STYLED_ITEM('',(#218),#225);
#218=PRESENTATION_STYLE_ASSIGNMENT((#219));
#219=SURFACE_STYLE_USAGE(.BOTH.,#220);
#220=SURFACE_SIDE_STYLE('',(#221));
#221=SURFACE_STYLE_FILL_AREA(#222);
#222=FILL_AREA_STYLE('',(#223));
#223=FILL_AREA_STYLE_COLOUR('',#224);
#224=COLOUR_RGB('',0.768627450980392,0.886274509803922,0.952941176470588);
#225=MANIFOLD_SOLID_BREP('Syringe Clamp',#216);
#226=SHAPE_DEFINITION_REPRESENTATION(#462,#227);
#227=SHAPE_REPRESENTATION('Syringe Clamp',(#228),#457);
#228=AXIS2_PLACEMENT_3D('',#272,#240,#241);
#229=AXIS2_PLACEMENT_3D('',#381,#246,#247);
#230=AXIS2_PLACEMENT_3D('',#382,#248,#249);
#231=AXIS2_PLACEMENT_3D('',#384,#250,#251);
#232=AXIS2_PLACEMENT_3D('',#394,#256,#257);
#233=AXIS2_PLACEMENT_3D('',#396,#258,#259);
#234=AXIS2_PLACEMENT_3D('',#450,#260,#261);
#235=AXIS2_PLACEMENT_3D('',#451,#262,#263);
#236=AXIS2_PLACEMENT_3D('',#452,#264,#265);
#237=AXIS2_PLACEMENT_3D('',#453,#266,#267);
#238=AXIS2_PLACEMENT_3D('',#454,#268,#269);
#239=AXIS2_PLACEMENT_3D('',#455,#270,#271);
#240=DIRECTION('',(0.,0.,1.));
#241=DIRECTION('',(1.,0.,0.));
#242=DIRECTION('',(0.,1.,-6.12323399573677E-17));
#243=DIRECTION('',(0.,1.,-6.12323399573677E-17));
#244=DIRECTION('',(0.,1.,-6.12323399573677E-17));
#245=DIRECTION('',(0.,1.,-6.12323399573677E-17));
#246=DIRECTION('',(0.,6.12323399573677E-17,1.));
#247=DIRECTION('',(0.,-1.,6.12323399573677E-17));
#248=DIRECTION('',(0.,-6.12323399573677E-17,-1.));
#249=DIRECTION('',(0.,-1.,6.12323399573677E-17));
#250=DIRECTION('',(0.,-6.12323399573677E-17,-1.));
#251=DIRECTION('',(0.,-1.,6.12323399573677E-17));
#252=DIRECTION('',(0.,1.,-6.12323399573677E-17));
#253=DIRECTION('',(1.,0.,0.));
#254=DIRECTION('',(0.,1.,-6.12323399573677E-17));
#255=DIRECTION('',(1.,0.,0.));
#256=DIRECTION('',(0.,6.12323399573677E-17,1.));
#257=DIRECTION('',(0.,-1.,6.12323399573677E-17));
#258=DIRECTION('',(0.,6.12323399573677E-17,1.));
#259=DIRECTION('',(0.,-1.,6.12323399573677E-17));
#260=DIRECTION('',(0.,1.,-6.12323399573677E-17));
#261=DIRECTION('',(-1.,0.,0.));
#262=DIRECTION('',(0.,-1.,6.12323399573677E-17));
#263=DIRECTION('',(1.,0.,0.));
#264=DIRECTION('',(0.,6.12323399573677E-17,1.));
#265=DIRECTION('',(0.,-1.,6.12323399573677E-17));
#266=DIRECTION('',(0.,6.12323399573677E-17,1.));
#267=DIRECTION('',(0.,-1.,6.12323399573677E-17));
#268=DIRECTION('',(0.,6.12323399573677E-17,1.));
#269=DIRECTION('',(0.,-1.,6.12323399573677E-17));
#270=DIRECTION('',(0.,6.12323399573677E-17,1.));
#271=DIRECTION('',(0.,-1.,6.12323399573677E-17));
#272=CARTESIAN_POINT('',(0.,0.,0.));
#273=CARTESIAN_POINT('',(0.00516900340470012,-0.23,0.039990949164836));
#274=CARTESIAN_POINT('',(0.00516900340470012,-0.17,0.039990949164836));
#275=CARTESIAN_POINT('',(0.00690977633011377,-0.23,0.039678207450991));
#276=CARTESIAN_POINT('',(0.00690977633011377,-0.17,0.039678207450991));
#277=CARTESIAN_POINT('',(0.010421334113885,-0.23,0.0388634627722368));
#278=CARTESIAN_POINT('',(0.010421334113885,-0.17,0.0388634627722368));
#279=CARTESIAN_POINT('',(0.015835449963798,-0.23,0.0377284451554674));
#280=CARTESIAN_POINT('',(0.015835449963798,-0.17,0.0377284451554674));
#281=CARTESIAN_POINT('',(0.0216055023010161,-0.23,0.0376940326932085));
#282=CARTESIAN_POINT('',(0.0216055023010161,-0.17,0.0376940326932085));
#283=CARTESIAN_POINT('',(0.0258775103690231,-0.23,0.039194798375572));
#284=CARTESIAN_POINT('',(0.0258775103690231,-0.17,0.039194798375572));
#285=CARTESIAN_POINT('',(0.0281637524062121,-0.23,0.0405163241747635));
#286=CARTESIAN_POINT('',(0.0281637524062121,-0.17,0.0405163241747634));
#287=CARTESIAN_POINT('',(0.0210782849280744,-0.176575175088617,0.037957664974843));
#288=CARTESIAN_POINT('',(0.0226534277932424,-0.177208693248125,0.0382435592987347));
#289=CARTESIAN_POINT('',(0.0241813670736114,-0.176590051918885,0.0386931455652579));
#290=CARTESIAN_POINT('',(0.0248696965362902,-0.175025023189989,0.0389513814181752));
#291=CARTESIAN_POINT('',(0.0242125272586504,-0.173437856366088,0.0387040294500624));
#292=CARTESIAN_POINT('',(0.0226931050891039,-0.172792885372817,0.0382531110272511));
#293=CARTESIAN_POINT('',(0.021113544666735,-0.173392714124949,0.0379622963995961));
#294=CARTESIAN_POINT('',(0.020420565874777,-0.174974939245532,0.0378900023925672));
#295=CARTESIAN_POINT('',(0.0210782849280744,-0.176575175088617,0.037957664974843));
#296=CARTESIAN_POINT('',(0.0226534277932424,-0.177208693248125,0.0382435592987347));
#297=CARTESIAN_POINT('',(0.0241813670736114,-0.176590051918885,0.0386931455652579));
#298=CARTESIAN_POINT('',(0.0226455605291092,-0.177,0.0382708412891733));
#299=CARTESIAN_POINT('',(0.00516900340470012,-0.23,0.039990949164836));
#300=CARTESIAN_POINT('',(0.00751764496078092,-0.23,0.0395689997108131));
#301=CARTESIAN_POINT('',(0.0145541410232828,-0.23,0.0377894980714964));
#302=CARTESIAN_POINT('',(0.0221033698328696,-0.23,0.0370132165451399));
#303=CARTESIAN_POINT('',(0.0281637524062121,-0.23,0.0405163241747635));
#304=CARTESIAN_POINT('',(0.00516900340470013,-0.23,0.039990949164836));
#305=CARTESIAN_POINT('',(0.0281637524062121,-0.23,0.0405163241747635));
#306=CARTESIAN_POINT('',(0.00516900340470013,-0.230002,0.039990949164836));
#307=CARTESIAN_POINT('',(0.00516900340470013,-0.17,0.039990949164836));
#308=CARTESIAN_POINT('',(0.00516900340470012,-0.17,0.039990949164836));
#309=CARTESIAN_POINT('',(0.00751764496078092,-0.17,0.0395689997108131));
#310=CARTESIAN_POINT('',(0.0145541410232828,-0.17,0.0377894980714964));
#311=CARTESIAN_POINT('',(0.0221033698328696,-0.17,0.0370132165451399));
#312=CARTESIAN_POINT('',(0.0281637524062121,-0.17,0.0405163241747635));
#313=CARTESIAN_POINT('',(0.0281637524062121,-0.17,0.0405163241747635));
#314=CARTESIAN_POINT('',(0.0281637524062121,-0.230002,0.0405163241747635));
#315=CARTESIAN_POINT('',(0.0241844097827008,-0.226589585225323,0.0386940922561521));
#316=CARTESIAN_POINT('',(0.022651980547866,-0.227208607049482,0.0382432078574627));
#317=CARTESIAN_POINT('',(0.0210810312004905,-0.226575986576749,0.0379581240490368));
#318=CARTESIAN_POINT('',(0.0204208146366328,-0.224981557007611,0.0378900300605867));
#319=CARTESIAN_POINT('',(0.021109512157874,-0.223395172853156,0.0379616913278875));
#320=CARTESIAN_POINT('',(0.0226919913968856,-0.222792761579368,0.0382528498757208));
#321=CARTESIAN_POINT('',(0.0242083116223471,-0.223435661180341,0.0387026343828593));
#322=CARTESIAN_POINT('',(0.024870076419527,-0.225016141242258,0.0389515246597106));
#323=CARTESIAN_POINT('',(0.0241844097827008,-0.226589585225323,0.0386940922561521));
#324=CARTESIAN_POINT('',(0.022651980547866,-0.227208607049482,0.0382432078574627));
#325=CARTESIAN_POINT('',(0.0210810312004905,-0.226575986576749,0.0379581240490368));
#326=CARTESIAN_POINT('',(0.0226455605291092,-0.227,0.0382708412891733));
#327=CARTESIAN_POINT('',(-0.0281637524062121,-0.23,0.0405163241747635));
#328=CARTESIAN_POINT('',(-0.0281637524062121,-0.17,0.0405163241747634));
#329=CARTESIAN_POINT('',(-0.0258775103690231,-0.23,0.039194798375572));
#330=CARTESIAN_POINT('',(-0.0258775103690231,-0.17,0.039194798375572));
#331=CARTESIAN_POINT('',(-0.0216055023010161,-0.23,0.0376940326932085));
#332=CARTESIAN_POINT('',(-0.0216055023010161,-0.17,0.0376940326932085));
#333=CARTESIAN_POINT('',(-0.015835449963798,-0.23,0.0377284451554674));
#334=CARTESIAN_POINT('',(-0.015835449963798,-0.17,0.0377284451554674));
#335=CARTESIAN_POINT('',(-0.010421334113885,-0.23,0.0388634627722368));
#336=CARTESIAN_POINT('',(-0.010421334113885,-0.17,0.0388634627722368));
#337=CARTESIAN_POINT('',(-0.00690977633011375,-0.23,0.039678207450991));
#338=CARTESIAN_POINT('',(-0.00690977633011375,-0.17,0.039678207450991));
#339=CARTESIAN_POINT('',(-0.0051690034047001,-0.23,0.039990949164836));
#340=CARTESIAN_POINT('',(-0.0051690034047001,-0.17,0.039990949164836));
#341=CARTESIAN_POINT('',(-0.0241844097827007,-0.226589585225323,0.0386940922561521));
#342=CARTESIAN_POINT('',(-0.022651980547866,-0.227208607049482,0.0382432078574627));
#343=CARTESIAN_POINT('',(-0.0210810312004905,-0.226575986576749,0.0379581240490368));
#344=CARTESIAN_POINT('',(-0.0204208146366329,-0.224981557007611,0.0378900300605867));
#345=CARTESIAN_POINT('',(-0.021109512157874,-0.223395172853156,0.0379616913278875));
#346=CARTESIAN_POINT('',(-0.0226919913968857,-0.222792761579368,0.0382528498757209));
#347=CARTESIAN_POINT('',(-0.0242083116223471,-0.223435661180341,0.0387026343828593));
#348=CARTESIAN_POINT('',(-0.024870076419527,-0.225016141242258,0.0389515246597107));
#349=CARTESIAN_POINT('',(-0.0241844097827007,-0.226589585225323,0.0386940922561521));
#350=CARTESIAN_POINT('',(-0.022651980547866,-0.227208607049482,0.0382432078574627));
#351=CARTESIAN_POINT('',(-0.0210810312004905,-0.226575986576749,0.0379581240490368));
#352=CARTESIAN_POINT('',(-0.0226455605291092,-0.227,0.0382708412891733));
#353=CARTESIAN_POINT('',(-0.0281637524062121,-0.23,0.0405163241747635));
#354=CARTESIAN_POINT('',(-0.0221033698328696,-0.23,0.0370132165451399));
#355=CARTESIAN_POINT('',(-0.0145541410232828,-0.23,0.0377894980714964));
#356=CARTESIAN_POINT('',(-0.00751764496078091,-0.23,0.0395689997108131));
#357=CARTESIAN_POINT('',(-0.0051690034047001,-0.23,0.039990949164836));
#358=CARTESIAN_POINT('',(-0.0281637524062121,-0.23,0.0405163241747635));
#359=CARTESIAN_POINT('',(-0.00516900340470011,-0.23,0.039990949164836));
#360=CARTESIAN_POINT('',(-0.0281637524062121,-0.230002,0.0405163241747635));
#361=CARTESIAN_POINT('',(-0.0281637524062121,-0.17,0.0405163241747635));
#362=CARTESIAN_POINT('',(-0.0281637524062121,-0.17,0.0405163241747635));
#363=CARTESIAN_POINT('',(-0.0221033698328696,-0.17,0.0370132165451399));
#364=CARTESIAN_POINT('',(-0.0145541410232828,-0.17,0.0377894980714963));
#365=CARTESIAN_POINT('',(-0.00751764496078091,-0.17,0.0395689997108131));
#366=CARTESIAN_POINT('',(-0.0051690034047001,-0.17,0.039990949164836));
#367=CARTESIAN_POINT('',(-0.00516900340470011,-0.17,0.039990949164836));
#368=CARTESIAN_POINT('',(-0.00516900340470011,-0.230002,0.039990949164836));
#369=CARTESIAN_POINT('',(-0.0210782849280744,-0.176575175088617,0.037957664974843));
#370=CARTESIAN_POINT('',(-0.0226534277932424,-0.177208693248125,0.0382435592987347));
#371=CARTESIAN_POINT('',(-0.0241813670736113,-0.176590051918885,0.0386931455652579));
#372=CARTESIAN_POINT('',(-0.0248696965362902,-0.175025023189989,0.0389513814181752));
#373=CARTESIAN_POINT('',(-0.0242125272586504,-0.173437856366088,0.0387040294500624));
#374=CARTESIAN_POINT('',(-0.0226931050891038,-0.172792885372817,0.0382531110272511));
#375=CARTESIAN_POINT('',(-0.021113544666735,-0.173392714124949,0.0379622963995961));
#376=CARTESIAN_POINT('',(-0.020420565874777,-0.174974939245532,0.0378900023925672));
#377=CARTESIAN_POINT('',(-0.0210782849280744,-0.176575175088617,0.037957664974843));
#378=CARTESIAN_POINT('',(-0.0226534277932424,-0.177208693248125,0.0382435592987347));
#379=CARTESIAN_POINT('',(-0.0241813670736113,-0.176590051918885,0.0386931455652579));
#380=CARTESIAN_POINT('',(-0.0226455605291092,-0.177,0.0382708412891733));
#381=CARTESIAN_POINT('',(-6.93889390390723E-18,-0.230002,0.0455163241747635));
#382=CARTESIAN_POINT('',(0.0226455605291092,-0.225,0.0455163241747635));
#383=CARTESIAN_POINT('',(0.0226455605291092,-0.227,0.0455163241747635));
#384=CARTESIAN_POINT('',(-0.0226455605291092,-0.175,0.0455163241747635));
#385=CARTESIAN_POINT('',(-0.0226455605291092,-0.177,0.0455163241747635));
#386=CARTESIAN_POINT('',(-0.0281637524062121,-0.230002,0.0455163241747635));
#387=CARTESIAN_POINT('',(-0.0281637524062121,-0.23,0.0455163241747635));
#388=CARTESIAN_POINT('',(-0.0281637524062121,-0.17,0.0455163241747635));
#389=CARTESIAN_POINT('',(-6.93889390390723E-18,-0.23,0.0455163241747635));
#390=CARTESIAN_POINT('',(0.0281637524062121,-0.23,0.0455163241747635));
#391=CARTESIAN_POINT('',(0.0281637524062121,-0.230002,0.0455163241747635));
#392=CARTESIAN_POINT('',(0.0281637524062121,-0.17,0.0455163241747635));
#393=CARTESIAN_POINT('',(-6.93889390390723E-18,-0.17,0.0455163241747635));
#394=CARTESIAN_POINT('',(0.0226455605291092,-0.175,0.0455163241747635));
#395=CARTESIAN_POINT('',(0.0226455605291092,-0.177,0.0455163241747635));
#396=CARTESIAN_POINT('',(-0.0226455605291092,-0.225,0.0455163241747635));
#397=CARTESIAN_POINT('',(-0.0226455605291092,-0.227,0.0455163241747635));
#398=CARTESIAN_POINT('',(-0.0051690034047001,-0.23,0.039990949164836));
#399=CARTESIAN_POINT('',(-0.0051690034047001,-0.17,0.039990949164836));
#400=CARTESIAN_POINT('',(-0.00343702599388104,-0.23,0.0403021107045708));
#401=CARTESIAN_POINT('',(-0.00343702599388104,-0.17,0.0403021107045708));
#402=CARTESIAN_POINT('',(2.84060969191202E-17,-0.23,0.0407305376449562));
#403=CARTESIAN_POINT('',(2.84060969191202E-17,-0.17,0.0407305376449561));
#404=CARTESIAN_POINT('',(0.00343702599388108,-0.23,0.0403021107045707));
#405=CARTESIAN_POINT('',(0.00343702599388108,-0.17,0.0403021107045707));
#406=CARTESIAN_POINT('',(0.00516900340470012,-0.23,0.039990949164836));
#407=CARTESIAN_POINT('',(0.00516900340470012,-0.17,0.039990949164836));
#408=CARTESIAN_POINT('',(-0.0051690034047001,-0.23,0.039990949164836));
#409=CARTESIAN_POINT('',(-0.00343702599388106,-0.23,0.0403021107045707));
#410=CARTESIAN_POINT('',(6.07153216591882E-18,-0.23,0.0407305376449561));
#411=CARTESIAN_POINT('',(0.00343702599388107,-0.23,0.0403021107045707));
#412=CARTESIAN_POINT('',(0.00516900340470012,-0.23,0.039990949164836));
#413=CARTESIAN_POINT('',(-0.0051690034047001,-0.17,0.039990949164836));
#414=CARTESIAN_POINT('',(-0.00343702599388106,-0.17,0.0403021107045707));
#415=CARTESIAN_POINT('',(6.07153216591882E-18,-0.17,0.0407305376449561));
#416=CARTESIAN_POINT('',(0.00343702599388107,-0.17,0.0403021107045707));
#417=CARTESIAN_POINT('',(0.00516900340470012,-0.17,0.039990949164836));
#418=CARTESIAN_POINT('',(-0.0281637524062121,-0.23,0.0405163241747635));
#419=CARTESIAN_POINT('',(-0.0281637524062121,-0.17,0.0405163241747634));
#420=CARTESIAN_POINT('',(-0.0307610592233588,-0.23,0.0420176560160307));
#421=CARTESIAN_POINT('',(-0.0307610592233588,-0.17,0.0420176560160307));
#422=CARTESIAN_POINT('',(-0.0291637524062121,-0.23,0.0455163241747635));
#423=CARTESIAN_POINT('',(-0.0291637524062121,-0.17,0.0455163241747635));
#424=CARTESIAN_POINT('',(-0.0281637524062121,-0.23,0.0455163241747635));
#425=CARTESIAN_POINT('',(-0.0281637524062121,-0.17,0.0455163241747635));
#426=CARTESIAN_POINT('',(-0.0281637524062121,-0.23,0.0405163241747635));
#427=CARTESIAN_POINT('',(-0.0307610592233588,-0.23,0.0420176560160307));
#428=CARTESIAN_POINT('',(-0.0291637524062121,-0.23,0.0455163241747635));
#429=CARTESIAN_POINT('',(-0.0281637524062121,-0.23,0.0455163241747635));
#430=CARTESIAN_POINT('',(-0.0281637524062121,-0.17,0.0405163241747635));
#431=CARTESIAN_POINT('',(-0.0307610592233588,-0.17,0.0420176560160307));
#432=CARTESIAN_POINT('',(-0.0291637524062121,-0.17,0.0455163241747635));
#433=CARTESIAN_POINT('',(-0.0281637524062121,-0.17,0.0455163241747635));
#434=CARTESIAN_POINT('',(0.0281637524062121,-0.23,0.0405163241747635));
#435=CARTESIAN_POINT('',(0.0281637524062121,-0.17,0.0405163241747634));
#436=CARTESIAN_POINT('',(0.0307610592233588,-0.23,0.0420176560160307));
#437=CARTESIAN_POINT('',(0.0307610592233588,-0.17,0.0420176560160307));
#438=CARTESIAN_POINT('',(0.0291637524062121,-0.23,0.0455163241747635));
#439=CARTESIAN_POINT('',(0.0291637524062121,-0.17,0.0455163241747635));
#440=CARTESIAN_POINT('',(0.0281637524062121,-0.23,0.0455163241747635));
#441=CARTESIAN_POINT('',(0.0281637524062121,-0.17,0.0455163241747635));
#442=CARTESIAN_POINT('',(0.0281637524062121,-0.23,0.0405163241747635));
#443=CARTESIAN_POINT('',(0.0307610592233588,-0.23,0.0420176560160307));
#444=CARTESIAN_POINT('',(0.0291637524062121,-0.23,0.0455163241747635));
#445=CARTESIAN_POINT('',(0.0281637524062121,-0.23,0.0455163241747635));
#446=CARTESIAN_POINT('',(0.0281637524062121,-0.17,0.0405163241747635));
#447=CARTESIAN_POINT('',(0.0307610592233588,-0.17,0.0420176560160307));
#448=CARTESIAN_POINT('',(0.0291637524062121,-0.17,0.0455163241747635));
#449=CARTESIAN_POINT('',(0.0281637524062121,-0.17,0.0455163241747635));
#450=CARTESIAN_POINT('',(1.38777878078145E-17,-0.17,0.00146564766610926));
#451=CARTESIAN_POINT('',(1.38777878078145E-17,-0.23,0.0117365943886209));
#452=CARTESIAN_POINT('',(-0.0226455605291092,-0.175,0.0255163241747635));
#453=CARTESIAN_POINT('',(0.0226455605291092,-0.175,0.0255163241747635));
#454=CARTESIAN_POINT('',(0.0226455605291092,-0.225,0.0255163241747635));
#455=CARTESIAN_POINT('',(-0.0226455605291092,-0.225,0.0255163241747635));
#456=MECHANICAL_DESIGN_GEOMETRIC_PRESENTATION_REPRESENTATION('',(#217),
#457);
#457=(
GEOMETRIC_REPRESENTATION_CONTEXT(3)
GLOBAL_UNCERTAINTY_ASSIGNED_CONTEXT((#458))
GLOBAL_UNIT_ASSIGNED_CONTEXT((#461,#460,#459))
REPRESENTATION_CONTEXT('Syringe Clamp','TOP_LEVEL_ASSEMBLY_PART')
);
#458=UNCERTAINTY_MEASURE_WITH_UNIT(LENGTH_MEASURE(2.E-5),#461,
'DISTANCE_ACCURACY_VALUE','Maximum Tolerance applied to model');
#459=(
NAMED_UNIT(*)
SI_UNIT($,.STERADIAN.)
SOLID_ANGLE_UNIT()
);
#460=(
NAMED_UNIT(*)
PLANE_ANGLE_UNIT()
SI_UNIT($,.RADIAN.)
);
#461=(
LENGTH_UNIT()
NAMED_UNIT(*)
SI_UNIT($,.METRE.)
);
#462=PRODUCT_DEFINITION_SHAPE('','',#463);
#463=PRODUCT_DEFINITION('','',#465,#464);
#464=PRODUCT_DEFINITION_CONTEXT('',#471,'design');
#465=PRODUCT_DEFINITION_FORMATION_WITH_SPECIFIED_SOURCE('','',#467,
 .NOT_KNOWN.);
#466=PRODUCT_RELATED_PRODUCT_CATEGORY('','',(#467));
#467=PRODUCT('Syringe Clamp','Syringe Clamp','Syringe Clamp',(#469));
#468=PRODUCT_CATEGORY('','');
#469=PRODUCT_CONTEXT('',#471,'mechanical');
#470=APPLICATION_PROTOCOL_DEFINITION('international standard',
'ap242_managed_model_based_3d_engineering',2020,#471);
#471=APPLICATION_CONTEXT('managed model based 3d engineering');
ENDSEC;
END-ISO-10303-21;
