ISO-10303-21;
HEADER;
/* Generated by software containing ST-Developer
 * from STEP Tools, Inc. (www.steptools.com) 
 */
/* OPTION: using custom renumber hook */

FILE_DESCRIPTION(
/* description */ ('STEP AP242 Edition 2',
'CAx-IF Rec.Pracs.---Representation and Presentation of Product Manufa
cturing Information (PMI)---4.0---2014-10-13',
'CAx-IF Rec.Pracs.---3D Tessellated Geometry---0.4---2014-09-14','2;1',
'CAx-IF Rec.Pracs.---User Defined Attributes---1.5---2016-08-15'),
/* implementation_level */ '2;1');

FILE_NAME(
/* name */ 'Part Studio 1 - Lead Screw',
/* time_stamp */ '2026-01-09T19:18:49Z',
/* author */ (''),
/* organization */ (''),
/* preprocessor_version */ 'ST-DEVELOPER v20',
/* originating_system */ 'ONSHAPE BY PTC INC, 1.208',
/* authorisation */ '  ');

FILE_SCHEMA (('AP242_MANAGED_MODEL_BASED_3D_ENGINEERING_MIM_LF { 1 0 10303 442 3 1 4 }'));
ENDSEC;

DATA;
#10=SHAPE_REPRESENTATION_RELATIONSHIP('','',#191,#11);
#11=ADVANCED_BREP_SHAPE_REPRESENTATION('',(#189),#325);
#12=PLANE('',#208);
#13=PLANE('',#210);
#14=PLANE('',#219);
#15=PLANE('',#220);
#16=ORIENTED_EDGE('',*,*,#48,.T.);
#17=ORIENTED_EDGE('',*,*,#49,.F.);
#18=ORIENTED_EDGE('',*,*,#50,.T.);
#19=ORIENTED_EDGE('',*,*,#51,.F.);
#20=ORIENTED_EDGE('',*,*,#52,.T.);
#21=ORIENTED_EDGE('',*,*,#53,.F.);
#22=ORIENTED_EDGE('',*,*,#54,.T.);
#23=ORIENTED_EDGE('',*,*,#55,.F.);
#24=ORIENTED_EDGE('',*,*,#56,.F.);
#25=ORIENTED_EDGE('',*,*,#57,.T.);
#26=ORIENTED_EDGE('',*,*,#58,.F.);
#27=ORIENTED_EDGE('',*,*,#54,.F.);
#28=ORIENTED_EDGE('',*,*,#52,.F.);
#29=ORIENTED_EDGE('',*,*,#50,.F.);
#30=ORIENTED_EDGE('',*,*,#48,.F.);
#31=ORIENTED_EDGE('',*,*,#56,.T.);
#32=ORIENTED_EDGE('',*,*,#59,.F.);
#33=ORIENTED_EDGE('',*,*,#55,.T.);
#34=ORIENTED_EDGE('',*,*,#53,.T.);
#35=ORIENTED_EDGE('',*,*,#51,.T.);
#36=ORIENTED_EDGE('',*,*,#49,.T.);
#37=ORIENTED_EDGE('',*,*,#57,.F.);
#38=ORIENTED_EDGE('',*,*,#60,.T.);
#39=ORIENTED_EDGE('',*,*,#59,.T.);
#40=ORIENTED_EDGE('',*,*,#61,.T.);
#41=ORIENTED_EDGE('',*,*,#62,.F.);
#42=ORIENTED_EDGE('',*,*,#58,.T.);
#43=ORIENTED_EDGE('',*,*,#63,.F.);
#44=ORIENTED_EDGE('',*,*,#61,.F.);
#45=ORIENTED_EDGE('',*,*,#63,.T.);
#46=ORIENTED_EDGE('',*,*,#62,.T.);
#47=ORIENTED_EDGE('',*,*,#60,.F.);
#48=EDGE_CURVE('',#64,#64,#80,.T.);
#49=EDGE_CURVE('',#65,#65,#81,.T.);
#50=EDGE_CURVE('',#66,#66,#82,.T.);
#51=EDGE_CURVE('',#67,#67,#83,.T.);
#52=EDGE_CURVE('',#68,#68,#84,.T.);
#53=EDGE_CURVE('',#69,#69,#85,.T.);
#54=EDGE_CURVE('',#70,#70,#86,.T.);
#55=EDGE_CURVE('',#71,#71,#87,.T.);
#56=EDGE_CURVE('',#72,#72,#88,.T.);
#57=EDGE_CURVE('',#73,#73,#89,.T.);
#58=EDGE_CURVE('',#74,#74,#90,.T.);
#59=EDGE_CURVE('',#75,#75,#91,.F.);
#60=EDGE_CURVE('',#76,#76,#92,.T.);
#61=EDGE_CURVE('',#77,#77,#93,.T.);
#62=EDGE_CURVE('',#78,#78,#94,.T.);
#63=EDGE_CURVE('',#79,#79,#95,.T.);
#64=VERTEX_POINT('',#282);
#65=VERTEX_POINT('',#284);
#66=VERTEX_POINT('',#287);
#67=VERTEX_POINT('',#289);
#68=VERTEX_POINT('',#292);
#69=VERTEX_POINT('',#294);
#70=VERTEX_POINT('',#297);
#71=VERTEX_POINT('',#299);
#72=VERTEX_POINT('',#302);
#73=VERTEX_POINT('',#304);
#74=VERTEX_POINT('',#307);
#75=VERTEX_POINT('',#310);
#76=VERTEX_POINT('',#313);
#77=VERTEX_POINT('',#316);
#78=VERTEX_POINT('',#318);
#79=VERTEX_POINT('',#321);
#80=CIRCLE('',#194,0.0016);
#81=CIRCLE('',#195,0.0016);
#82=CIRCLE('',#197,0.0016);
#83=CIRCLE('',#198,0.0016);
#84=CIRCLE('',#200,0.0016);
#85=CIRCLE('',#201,0.0016);
#86=CIRCLE('',#203,0.0016);
#87=CIRCLE('',#204,0.0016);
#88=CIRCLE('',#206,0.011);
#89=CIRCLE('',#207,0.011);
#90=CIRCLE('',#209,0.005);
#91=CIRCLE('',#211,0.005);
#92=CIRCLE('',#213,0.005);
#93=CIRCLE('',#215,0.004);
#94=CIRCLE('',#216,0.004);
#95=CIRCLE('',#218,0.005);
#96=EDGE_LOOP('',(#16));
#97=EDGE_LOOP('',(#17));
#98=EDGE_LOOP('',(#18));
#99=EDGE_LOOP('',(#19));
#100=EDGE_LOOP('',(#20));
#101=EDGE_LOOP('',(#21));
#102=EDGE_LOOP('',(#22));
#103=EDGE_LOOP('',(#23));
#104=EDGE_LOOP('',(#24));
#105=EDGE_LOOP('',(#25));
#106=EDGE_LOOP('',(#26));
#107=EDGE_LOOP('',(#27));
#108=EDGE_LOOP('',(#28));
#109=EDGE_LOOP('',(#29));
#110=EDGE_LOOP('',(#30));
#111=EDGE_LOOP('',(#31));
#112=EDGE_LOOP('',(#32));
#113=EDGE_LOOP('',(#33));
#114=EDGE_LOOP('',(#34));
#115=EDGE_LOOP('',(#35));
#116=EDGE_LOOP('',(#36));
#117=EDGE_LOOP('',(#37));
#118=EDGE_LOOP('',(#38));
#119=EDGE_LOOP('',(#39));
#120=EDGE_LOOP('',(#40));
#121=EDGE_LOOP('',(#41));
#122=EDGE_LOOP('',(#42));
#123=EDGE_LOOP('',(#43));
#124=EDGE_LOOP('',(#44));
#125=EDGE_LOOP('',(#45));
#126=EDGE_LOOP('',(#46));
#127=EDGE_LOOP('',(#47));
#128=FACE_BOUND('',#96,.T.);
#129=FACE_BOUND('',#97,.T.);
#130=FACE_BOUND('',#98,.T.);
#131=FACE_BOUND('',#99,.T.);
#132=FACE_BOUND('',#100,.T.);
#133=FACE_BOUND('',#101,.T.);
#134=FACE_BOUND('',#102,.T.);
#135=FACE_BOUND('',#103,.T.);
#136=FACE_BOUND('',#104,.T.);
#137=FACE_BOUND('',#105,.T.);
#138=FACE_BOUND('',#106,.T.);
#139=FACE_BOUND('',#107,.T.);
#140=FACE_BOUND('',#108,.T.);
#141=FACE_BOUND('',#109,.T.);
#142=FACE_BOUND('',#110,.T.);
#143=FACE_BOUND('',#111,.T.);
#144=FACE_BOUND('',#112,.T.);
#145=FACE_BOUND('',#113,.T.);
#146=FACE_BOUND('',#114,.T.);
#147=FACE_BOUND('',#115,.T.);
#148=FACE_BOUND('',#116,.T.);
#149=FACE_BOUND('',#117,.T.);
#150=FACE_BOUND('',#118,.T.);
#151=FACE_BOUND('',#119,.T.);
#152=FACE_BOUND('',#120,.T.);
#153=FACE_BOUND('',#121,.T.);
#154=FACE_BOUND('',#122,.T.);
#155=FACE_BOUND('',#123,.T.);
#156=FACE_BOUND('',#124,.T.);
#157=FACE_BOUND('',#125,.T.);
#158=FACE_BOUND('',#126,.T.);
#159=FACE_BOUND('',#127,.T.);
#160=CYLINDRICAL_SURFACE('',#193,0.0016);
#161=CYLINDRICAL_SURFACE('',#196,0.0016);
#162=CYLINDRICAL_SURFACE('',#199,0.0016);
#163=CYLINDRICAL_SURFACE('',#202,0.0016);
#164=CYLINDRICAL_SURFACE('',#205,0.011);
#165=CYLINDRICAL_SURFACE('',#212,0.005);
#166=CYLINDRICAL_SURFACE('',#214,0.004);
#167=CYLINDRICAL_SURFACE('',#217,0.005);
#168=ADVANCED_FACE('',(#128,#129),#160,.F.);
#169=ADVANCED_FACE('',(#130,#131),#161,.F.);
#170=ADVANCED_FACE('',(#132,#133),#162,.F.);
#171=ADVANCED_FACE('',(#134,#135),#163,.F.);
#172=ADVANCED_FACE('',(#136,#137),#164,.T.);
#173=ADVANCED_FACE('',(#138,#139,#140,#141,#142,#143),#12,.T.);
#174=ADVANCED_FACE('',(#144,#145,#146,#147,#148,#149),#13,.F.);
#175=ADVANCED_FACE('',(#150,#151),#165,.T.);
#176=ADVANCED_FACE('',(#152,#153),#166,.F.);
#177=ADVANCED_FACE('',(#154,#155),#167,.T.);
#178=ADVANCED_FACE('',(#156,#157),#14,.T.);
#179=ADVANCED_FACE('',(#158,#159),#15,.F.);
#180=CLOSED_SHELL('',(#168,#169,#170,#171,#172,#173,#174,#175,#176,#177,
#178,#179));
#181=STYLED_ITEM('',(#182),#189);
#182=PRESENTATION_STYLE_ASSIGNMENT((#183));
#183=SURFACE_STYLE_USAGE(.BOTH.,#184);
#184=SURFACE_SIDE_STYLE('',(#185));
#185=SURFACE_STYLE_FILL_AREA(#186);
#186=FILL_AREA_STYLE('',(#187));
#187=FILL_AREA_STYLE_COLOUR('',#188);
#188=COLOUR_RGB('',0.823529411764706,0.623529411764706,0.0352941176470589);
#189=MANIFOLD_SOLID_BREP('Lead Screw',#180);
#190=SHAPE_DEFINITION_REPRESENTATION(#330,#191);
#191=SHAPE_REPRESENTATION('Lead Screw',(#192),#325);
#192=AXIS2_PLACEMENT_3D('',#279,#221,#222);
#193=AXIS2_PLACEMENT_3D('',#280,#223,#224);
#194=AXIS2_PLACEMENT_3D('',#281,#225,#226);
#195=AXIS2_PLACEMENT_3D('',#283,#227,#228);
#196=AXIS2_PLACEMENT_3D('',#285,#229,#230);
#197=AXIS2_PLACEMENT_3D('',#286,#231,#232);
#198=AXIS2_PLACEMENT_3D('',#288,#233,#234);
#199=AXIS2_PLACEMENT_3D('',#290,#235,#236);
#200=AXIS2_PLACEMENT_3D('',#291,#237,#238);
#201=AXIS2_PLACEMENT_3D('',#293,#239,#240);
#202=AXIS2_PLACEMENT_3D('',#295,#241,#242);
#203=AXIS2_PLACEMENT_3D('',#296,#243,#244);
#204=AXIS2_PLACEMENT_3D('',#298,#245,#246);
#205=AXIS2_PLACEMENT_3D('',#300,#247,#248);
#206=AXIS2_PLACEMENT_3D('',#301,#249,#250);
#207=AXIS2_PLACEMENT_3D('',#303,#251,#252);
#208=AXIS2_PLACEMENT_3D('',#305,#253,#254);
#209=AXIS2_PLACEMENT_3D('',#306,#255,#256);
#210=AXIS2_PLACEMENT_3D('',#308,#257,#258);
#211=AXIS2_PLACEMENT_3D('',#309,#259,#260);
#212=AXIS2_PLACEMENT_3D('',#311,#261,#262);
#213=AXIS2_PLACEMENT_3D('',#312,#263,#264);
#214=AXIS2_PLACEMENT_3D('',#314,#265,#266);
#215=AXIS2_PLACEMENT_3D('',#315,#267,#268);
#216=AXIS2_PLACEMENT_3D('',#317,#269,#270);
#217=AXIS2_PLACEMENT_3D('',#319,#271,#272);
#218=AXIS2_PLACEMENT_3D('',#320,#273,#274);
#219=AXIS2_PLACEMENT_3D('',#322,#275,#276);
#220=AXIS2_PLACEMENT_3D('',#323,#277,#278);
#221=DIRECTION('',(0.,0.,1.));
#222=DIRECTION('',(1.,0.,0.));
#223=DIRECTION('',(4.32978028117747E-17,-1.,4.32978028117746E-17));
#224=DIRECTION('',(-0.707106781186547,-6.12323399573677E-17,-0.707106781186548));
#225=DIRECTION('',(-4.32978028117747E-17,1.,-4.32978028117746E-17));
#226=DIRECTION('',(0.707106781186547,6.12323399573677E-17,0.707106781186548));
#227=DIRECTION('',(-4.32978028117747E-17,1.,-4.32978028117746E-17));
#228=DIRECTION('',(0.707106781186547,6.12323399573677E-17,0.707106781186548));
#229=DIRECTION('',(4.32978028117747E-17,-1.,4.32978028117746E-17));
#230=DIRECTION('',(-0.707106781186547,-6.12323399573677E-17,-0.707106781186548));
#231=DIRECTION('',(-4.32978028117747E-17,1.,-4.32978028117746E-17));
#232=DIRECTION('',(0.707106781186547,6.12323399573677E-17,0.707106781186548));
#233=DIRECTION('',(-4.32978028117747E-17,1.,-4.32978028117746E-17));
#234=DIRECTION('',(0.707106781186547,6.12323399573677E-17,0.707106781186548));
#235=DIRECTION('',(4.32978028117747E-17,-1.,4.32978028117746E-17));
#236=DIRECTION('',(-0.707106781186547,-6.12323399573677E-17,-0.707106781186548));
#237=DIRECTION('',(-4.32978028117747E-17,1.,-4.32978028117746E-17));
#238=DIRECTION('',(0.707106781186547,6.12323399573677E-17,0.707106781186548));
#239=DIRECTION('',(-4.32978028117747E-17,1.,-4.32978028117746E-17));
#240=DIRECTION('',(0.707106781186547,6.12323399573677E-17,0.707106781186548));
#241=DIRECTION('',(4.32978028117747E-17,-1.,4.32978028117746E-17));
#242=DIRECTION('',(-0.707106781186547,-6.12323399573677E-17,-0.707106781186548));
#243=DIRECTION('',(-4.32978028117747E-17,1.,-4.32978028117746E-17));
#244=DIRECTION('',(0.707106781186547,6.12323399573677E-17,0.707106781186548));
#245=DIRECTION('',(-4.32978028117747E-17,1.,-4.32978028117746E-17));
#246=DIRECTION('',(0.707106781186547,6.12323399573677E-17,0.707106781186548));
#247=DIRECTION('',(4.32978028117747E-17,-1.,4.32978028117746E-17));
#248=DIRECTION('',(-0.707106781186547,-6.12323399573677E-17,-0.707106781186548));
#249=DIRECTION('',(-4.32978028117747E-17,1.,-4.32978028117746E-17));
#250=DIRECTION('',(0.707106781186547,6.12323399573677E-17,0.707106781186548));
#251=DIRECTION('',(-4.32978028117747E-17,1.,-4.32978028117746E-17));
#252=DIRECTION('',(0.707106781186547,6.12323399573677E-17,0.707106781186548));
#253=DIRECTION('',(-4.32978028117747E-17,1.,-4.32978028117746E-17));
#254=DIRECTION('',(0.707106781186547,6.12323399573677E-17,0.707106781186548));
#255=DIRECTION('',(-4.32978028117747E-17,1.,-4.32978028117746E-17));
#256=DIRECTION('',(0.707106781186547,6.12323399573677E-17,0.707106781186548));
#257=DIRECTION('',(-4.32978028117747E-17,1.,-4.32978028117746E-17));
#258=DIRECTION('',(0.707106781186547,6.12323399573677E-17,0.707106781186548));
#259=DIRECTION('',(-4.32978028117747E-17,1.,-4.32978028117746E-17));
#260=DIRECTION('',(0.707106781186547,6.12323399573677E-17,0.707106781186548));
#261=DIRECTION('',(4.32978028117747E-17,-1.,4.32978028117746E-17));
#262=DIRECTION('',(-0.707106781186547,-6.12323399573677E-17,-0.707106781186548));
#263=DIRECTION('',(-4.32978028117747E-17,1.,-4.32978028117746E-17));
#264=DIRECTION('',(0.707106781186547,6.12323399573677E-17,0.707106781186548));
#265=DIRECTION('',(4.32978028117747E-17,-1.,4.32978028117746E-17));
#266=DIRECTION('',(-0.707106781186547,-6.12323399573677E-17,-0.707106781186548));
#267=DIRECTION('',(-4.32978028117747E-17,1.,-4.32978028117746E-17));
#268=DIRECTION('',(0.707106781186547,6.12323399573677E-17,0.707106781186548));
#269=DIRECTION('',(-4.32978028117747E-17,1.,-4.32978028117746E-17));
#270=DIRECTION('',(0.707106781186547,6.12323399573677E-17,0.707106781186548));
#271=DIRECTION('',(4.32978028117747E-17,-1.,4.32978028117746E-17));
#272=DIRECTION('',(-0.707106781186547,-6.12323399573677E-17,-0.707106781186548));
#273=DIRECTION('',(-4.32978028117747E-17,1.,-4.32978028117746E-17));
#274=DIRECTION('',(0.707106781186547,6.12323399573677E-17,0.707106781186548));
#275=DIRECTION('',(-4.32978028117747E-17,1.,-4.32978028117746E-17));
#276=DIRECTION('',(0.707106781186547,6.12323399573677E-17,0.707106781186548));
#277=DIRECTION('',(-4.32978028117747E-17,1.,-4.32978028117746E-17));
#278=DIRECTION('',(0.707106781186547,6.12323399573677E-17,0.707106781186548));
#279=CARTESIAN_POINT('',(0.,0.,0.));
#280=CARTESIAN_POINT('',(0.00565685424913791,-0.11144,-0.00565685424930524));
#281=CARTESIAN_POINT('',(0.00565685424913791,-0.11144,-0.00565685424930524));
#282=CARTESIAN_POINT('',(0.00678822509903639,-0.11144,-0.00452548339940676));
#283=CARTESIAN_POINT('',(0.00565685424913791,-0.115,-0.00565685424930524));
#284=CARTESIAN_POINT('',(0.00678822509903639,-0.115,-0.00452548339940676));
#285=CARTESIAN_POINT('',(-0.00565685424984685,-0.11144,-0.00565685424930526));
#286=CARTESIAN_POINT('',(-0.00565685424984685,-0.11144,-0.00565685424930526));
#287=CARTESIAN_POINT('',(-0.00452548339994838,-0.11144,-0.00452548339940678));
#288=CARTESIAN_POINT('',(-0.00565685424984685,-0.115,-0.00565685424930526));
#289=CARTESIAN_POINT('',(-0.00452548339994838,-0.115,-0.00452548339940678));
#290=CARTESIAN_POINT('',(-0.00565685424984686,-0.11144,0.00565685424967951));
#291=CARTESIAN_POINT('',(-0.00565685424984686,-0.11144,0.00565685424967951));
#292=CARTESIAN_POINT('',(-0.00452548339994839,-0.11144,0.00678822509957799));
#293=CARTESIAN_POINT('',(-0.00565685424984686,-0.115,0.00565685424967951));
#294=CARTESIAN_POINT('',(-0.00452548339994839,-0.115,0.00678822509957799));
#295=CARTESIAN_POINT('',(0.0056568542491379,-0.11144,0.00565685424967952));
#296=CARTESIAN_POINT('',(0.0056568542491379,-0.11144,0.00565685424967952));
#297=CARTESIAN_POINT('',(0.00678822509903637,-0.11144,0.006788225099578));
#298=CARTESIAN_POINT('',(0.0056568542491379,-0.115,0.00565685424967952));
#299=CARTESIAN_POINT('',(0.00678822509903637,-0.115,0.006788225099578));
#300=CARTESIAN_POINT('',(-3.5447279959589E-13,-0.11144,1.87129987857839E-13));
#301=CARTESIAN_POINT('',(-3.5447279959589E-13,-0.11144,1.87129987857839E-13));
#302=CARTESIAN_POINT('',(0.00777817459269754,-0.11144,0.00777817459323916));
#303=CARTESIAN_POINT('',(-3.54472645455712E-13,-0.115,1.87130141998017E-13));
#304=CARTESIAN_POINT('',(0.00777817459269754,-0.115,0.00777817459323916));
#305=CARTESIAN_POINT('',(-3.54473275871721E-13,-0.11144,1.8713046413367E-13));
#306=CARTESIAN_POINT('',(-3.54473059382707E-13,-0.11144,1.87130247644656E-13));
#307=CARTESIAN_POINT('',(0.00353553390557826,-0.11144,0.00353553390611987));
#308=CARTESIAN_POINT('',(-3.54473121731543E-13,-0.115,1.87130618273848E-13));
#309=CARTESIAN_POINT('',(-3.54472905242529E-13,-0.115,1.87130401784834E-13));
#310=CARTESIAN_POINT('',(0.00353553390557826,-0.115,0.00353553390611987));
#311=CARTESIAN_POINT('',(-3.54473121731543E-13,-0.11,1.87130185295819E-13));
#312=CARTESIAN_POINT('',(-3.54472472264501E-13,-0.125,1.87130834762862E-13));
#313=CARTESIAN_POINT('',(0.00353553390557826,-0.125,0.00353553390611987));
#314=CARTESIAN_POINT('',(-3.54473165029346E-13,-0.11,1.87130228593622E-13));
#315=CARTESIAN_POINT('',(-3.54473165029346E-13,-0.11,1.87130228593622E-13));
#316=CARTESIAN_POINT('',(0.00282842712439172,-0.11,0.00282842712493332));
#317=CARTESIAN_POINT('',(-3.54472515562303E-13,-0.125,1.87130878060665E-13));
#318=CARTESIAN_POINT('',(0.00282842712439172,-0.125,0.00282842712493332));
#319=CARTESIAN_POINT('',(-3.54473121731543E-13,-0.11,1.87130185295819E-13));
#320=CARTESIAN_POINT('',(-3.54473121731543E-13,-0.11,1.87130185295819E-13));
#321=CARTESIAN_POINT('',(0.00353553390557826,-0.11,0.00353553390611987));
#322=CARTESIAN_POINT('',(-3.54473338220557E-13,-0.11,1.87130401784834E-13));
#323=CARTESIAN_POINT('',(-3.54472688753515E-13,-0.125,1.87131051251876E-13));
#324=MECHANICAL_DESIGN_GEOMETRIC_PRESENTATION_REPRESENTATION('',(#181),
#325);
#325=(
GEOMETRIC_REPRESENTATION_CONTEXT(3)
GLOBAL_UNCERTAINTY_ASSIGNED_CONTEXT((#326))
GLOBAL_UNIT_ASSIGNED_CONTEXT((#329,#328,#327))
REPRESENTATION_CONTEXT('Lead Screw','TOP_LEVEL_ASSEMBLY_PART')
);
#326=UNCERTAINTY_MEASURE_WITH_UNIT(LENGTH_MEASURE(1.E-8),#329,
'DISTANCE_ACCURACY_VALUE','Maximum Tolerance applied to model');
#327=(
NAMED_UNIT(*)
SI_UNIT($,.STERADIAN.)
SOLID_ANGLE_UNIT()
);
#328=(
NAMED_UNIT(*)
PLANE_ANGLE_UNIT()
SI_UNIT($,.RADIAN.)
);
#329=(
LENGTH_UNIT()
NAMED_UNIT(*)
SI_UNIT($,.METRE.)
);
#330=PRODUCT_DEFINITION_SHAPE('','',#331);
#331=PRODUCT_DEFINITION('','',#333,#332);
#332=PRODUCT_DEFINITION_CONTEXT('',#339,'design');
#333=PRODUCT_DEFINITION_FORMATION_WITH_SPECIFIED_SOURCE('','',#335,
 .NOT_KNOWN.);
#334=PRODUCT_RELATED_PRODUCT_CATEGORY('','',(#335));
#335=PRODUCT('Lead Screw','Lead Screw','Lead Screw',(#337));
#336=PRODUCT_CATEGORY('','');
#337=PRODUCT_CONTEXT('',#339,'mechanical');
#338=APPLICATION_PROTOCOL_DEFINITION('international standard',
'ap242_managed_model_based_3d_engineering',2020,#339);
#339=APPLICATION_CONTEXT('managed model based 3d engineering');
ENDSEC;
END-ISO-10303-21;
