ISO-10303-21;
HEADER;
/* Generated by software containing ST-Developer
 * from STEP Tools, Inc. (www.steptools.com) 
 */
/* OPTION: using custom renumber hook */

FILE_DESCRIPTION(
/* description */ ('STEP AP242 Edition 2',
'CAx-IF Rec.Pracs.---Representation and Presentation of Product Manufa
cturing Information (PMI)---4.0---2014-10-13',
'CAx-IF Rec.Pracs.---3D Tessellated Geometry---0.4---2014-09-14','2;1',
'CAx-IF Rec.Pracs.---User Defined Attributes---1.5---2016-08-15'),
/* implementation_level */ '2;1');

FILE_NAME(
/* name */ 'Part Studio 1 - Pusher',
/* time_stamp */ '2026-01-09T19:18:49Z',
/* author */ (''),
/* organization */ (''),
/* preprocessor_version */ 'ST-DEVELOPER v20',
/* originating_system */ 'ONSHAPE BY PTC INC, 1.208',
/* authorisation */ '  ');

FILE_SCHEMA (('AP242_MANAGED_MODEL_BASED_3D_ENGINEERING_MIM_LF { 1 0 10303 442 3 1 4 }'));
ENDSEC;

DATA;
#10=SHAPE_REPRESENTATION_RELATIONSHIP('','',#531,#11);
#11=ADVANCED_BREP_SHAPE_REPRESENTATION('',(#529),#895);
#12=CIRCLE('',#537,0.02);
#13=CIRCLE('',#538,0.02);
#14=CIRCLE('',#542,0.00195);
#15=CIRCLE('',#543,0.00195);
#16=CIRCLE('',#545,0.00195);
#17=CIRCLE('',#546,0.00195);
#18=CIRCLE('',#548,0.00195);
#19=CIRCLE('',#549,0.00195);
#20=CIRCLE('',#551,0.0075);
#21=CIRCLE('',#552,0.0075);
#22=CIRCLE('',#554,0.00195);
#23=CIRCLE('',#555,0.00195);
#24=CIRCLE('',#557,0.00195);
#25=CIRCLE('',#558,0.00195);
#26=CIRCLE('',#560,0.0075);
#27=CIRCLE('',#561,0.0075);
#28=CIRCLE('',#563,0.00195);
#29=CIRCLE('',#564,0.00195);
#30=CIRCLE('',#566,0.00195);
#31=CIRCLE('',#567,0.00195);
#32=CIRCLE('',#569,0.00570000000040084);
#33=CIRCLE('',#570,0.00570000000040084);
#34=CIRCLE('',#572,0.0015);
#35=CIRCLE('',#573,0.0015);
#36=CIRCLE('',#575,0.0015);
#37=CIRCLE('',#576,0.0015);
#38=CIRCLE('',#578,0.0015);
#39=CIRCLE('',#579,0.0015);
#40=CIRCLE('',#581,0.0015);
#41=CIRCLE('',#582,0.0015);
#42=CIRCLE('',#584,0.02);
#43=CIRCLE('',#585,0.02);
#44=CIRCLE('',#587,0.00195);
#45=CIRCLE('',#588,0.00195);
#46=CIRCLE('',#590,0.01);
#47=CIRCLE('',#591,0.01);
#48=CIRCLE('',#592,0.01);
#49=CIRCLE('',#594,0.01);
#50=CIRCLE('',#595,0.01);
#51=CIRCLE('',#596,0.01);
#52=CYLINDRICAL_SURFACE('',#536,0.02);
#53=CYLINDRICAL_SURFACE('',#541,0.00195);
#54=CYLINDRICAL_SURFACE('',#544,0.00195);
#55=CYLINDRICAL_SURFACE('',#547,0.00195);
#56=CYLINDRICAL_SURFACE('',#550,0.0075);
#57=CYLINDRICAL_SURFACE('',#553,0.00195);
#58=CYLINDRICAL_SURFACE('',#556,0.00195);
#59=CYLINDRICAL_SURFACE('',#559,0.0075);
#60=CYLINDRICAL_SURFACE('',#562,0.00195);
#61=CYLINDRICAL_SURFACE('',#565,0.00195);
#62=CYLINDRICAL_SURFACE('',#568,0.00570000000040084);
#63=CYLINDRICAL_SURFACE('',#571,0.0015);
#64=CYLINDRICAL_SURFACE('',#574,0.0015);
#65=CYLINDRICAL_SURFACE('',#577,0.0015);
#66=CYLINDRICAL_SURFACE('',#580,0.0015);
#67=CYLINDRICAL_SURFACE('',#583,0.02);
#68=CYLINDRICAL_SURFACE('',#586,0.00195);
#69=CYLINDRICAL_SURFACE('',#597,0.01);
#70=CYLINDRICAL_SURFACE('',#598,0.01);
#71=CYLINDRICAL_SURFACE('',#599,0.01);
#72=ORIENTED_EDGE('',*,*,#192,.F.);
#73=ORIENTED_EDGE('',*,*,#193,.T.);
#74=ORIENTED_EDGE('',*,*,#194,.T.);
#75=ORIENTED_EDGE('',*,*,#195,.T.);
#76=ORIENTED_EDGE('',*,*,#196,.T.);
#77=ORIENTED_EDGE('',*,*,#197,.T.);
#78=ORIENTED_EDGE('',*,*,#198,.F.);
#79=ORIENTED_EDGE('',*,*,#199,.T.);
#80=ORIENTED_EDGE('',*,*,#200,.F.);
#81=ORIENTED_EDGE('',*,*,#201,.T.);
#82=ORIENTED_EDGE('',*,*,#202,.T.);
#83=ORIENTED_EDGE('',*,*,#203,.F.);
#84=ORIENTED_EDGE('',*,*,#204,.T.);
#85=ORIENTED_EDGE('',*,*,#205,.F.);
#86=ORIENTED_EDGE('',*,*,#206,.F.);
#87=ORIENTED_EDGE('',*,*,#203,.T.);
#88=ORIENTED_EDGE('',*,*,#207,.F.);
#89=ORIENTED_EDGE('',*,*,#208,.T.);
#90=ORIENTED_EDGE('',*,*,#209,.T.);
#91=ORIENTED_EDGE('',*,*,#205,.T.);
#92=ORIENTED_EDGE('',*,*,#210,.F.);
#93=ORIENTED_EDGE('',*,*,#211,.T.);
#94=ORIENTED_EDGE('',*,*,#212,.T.);
#95=ORIENTED_EDGE('',*,*,#213,.F.);
#96=ORIENTED_EDGE('',*,*,#214,.T.);
#97=ORIENTED_EDGE('',*,*,#215,.F.);
#98=ORIENTED_EDGE('',*,*,#216,.T.);
#99=ORIENTED_EDGE('',*,*,#217,.F.);
#100=ORIENTED_EDGE('',*,*,#218,.T.);
#101=ORIENTED_EDGE('',*,*,#219,.F.);
#102=ORIENTED_EDGE('',*,*,#220,.T.);
#103=ORIENTED_EDGE('',*,*,#221,.F.);
#104=ORIENTED_EDGE('',*,*,#222,.F.);
#105=ORIENTED_EDGE('',*,*,#223,.T.);
#106=ORIENTED_EDGE('',*,*,#224,.F.);
#107=ORIENTED_EDGE('',*,*,#225,.T.);
#108=ORIENTED_EDGE('',*,*,#226,.F.);
#109=ORIENTED_EDGE('',*,*,#227,.T.);
#110=ORIENTED_EDGE('',*,*,#228,.F.);
#111=ORIENTED_EDGE('',*,*,#229,.T.);
#112=ORIENTED_EDGE('',*,*,#230,.F.);
#113=ORIENTED_EDGE('',*,*,#231,.T.);
#114=ORIENTED_EDGE('',*,*,#232,.T.);
#115=ORIENTED_EDGE('',*,*,#233,.F.);
#116=ORIENTED_EDGE('',*,*,#234,.T.);
#117=ORIENTED_EDGE('',*,*,#235,.F.);
#118=ORIENTED_EDGE('',*,*,#236,.T.);
#119=ORIENTED_EDGE('',*,*,#237,.F.);
#120=ORIENTED_EDGE('',*,*,#238,.T.);
#121=ORIENTED_EDGE('',*,*,#239,.F.);
#122=ORIENTED_EDGE('',*,*,#240,.T.);
#123=ORIENTED_EDGE('',*,*,#241,.F.);
#124=ORIENTED_EDGE('',*,*,#242,.T.);
#125=ORIENTED_EDGE('',*,*,#195,.F.);
#126=ORIENTED_EDGE('',*,*,#243,.F.);
#127=ORIENTED_EDGE('',*,*,#213,.T.);
#128=ORIENTED_EDGE('',*,*,#244,.T.);
#129=ORIENTED_EDGE('',*,*,#245,.F.);
#130=ORIENTED_EDGE('',*,*,#209,.F.);
#131=ORIENTED_EDGE('',*,*,#246,.T.);
#132=ORIENTED_EDGE('',*,*,#210,.T.);
#133=ORIENTED_EDGE('',*,*,#243,.T.);
#134=ORIENTED_EDGE('',*,*,#194,.F.);
#135=ORIENTED_EDGE('',*,*,#247,.T.);
#136=ORIENTED_EDGE('',*,*,#196,.F.);
#137=ORIENTED_EDGE('',*,*,#248,.T.);
#138=ORIENTED_EDGE('',*,*,#200,.T.);
#139=ORIENTED_EDGE('',*,*,#206,.T.);
#140=ORIENTED_EDGE('',*,*,#240,.F.);
#141=ORIENTED_EDGE('',*,*,#238,.F.);
#142=ORIENTED_EDGE('',*,*,#236,.F.);
#143=ORIENTED_EDGE('',*,*,#234,.F.);
#144=ORIENTED_EDGE('',*,*,#232,.F.);
#145=ORIENTED_EDGE('',*,*,#230,.T.);
#146=ORIENTED_EDGE('',*,*,#228,.T.);
#147=ORIENTED_EDGE('',*,*,#226,.T.);
#148=ORIENTED_EDGE('',*,*,#224,.T.);
#149=ORIENTED_EDGE('',*,*,#222,.T.);
#150=ORIENTED_EDGE('',*,*,#220,.F.);
#151=ORIENTED_EDGE('',*,*,#218,.F.);
#152=ORIENTED_EDGE('',*,*,#216,.F.);
#153=ORIENTED_EDGE('',*,*,#214,.F.);
#154=ORIENTED_EDGE('',*,*,#244,.F.);
#155=ORIENTED_EDGE('',*,*,#212,.F.);
#156=ORIENTED_EDGE('',*,*,#249,.T.);
#157=ORIENTED_EDGE('',*,*,#207,.T.);
#158=ORIENTED_EDGE('',*,*,#204,.F.);
#159=ORIENTED_EDGE('',*,*,#202,.F.);
#160=ORIENTED_EDGE('',*,*,#250,.T.);
#161=ORIENTED_EDGE('',*,*,#198,.T.);
#162=ORIENTED_EDGE('',*,*,#251,.T.);
#163=ORIENTED_EDGE('',*,*,#192,.T.);
#164=ORIENTED_EDGE('',*,*,#242,.F.);
#165=ORIENTED_EDGE('',*,*,#241,.T.);
#166=ORIENTED_EDGE('',*,*,#239,.T.);
#167=ORIENTED_EDGE('',*,*,#237,.T.);
#168=ORIENTED_EDGE('',*,*,#235,.T.);
#169=ORIENTED_EDGE('',*,*,#233,.T.);
#170=ORIENTED_EDGE('',*,*,#231,.F.);
#171=ORIENTED_EDGE('',*,*,#229,.F.);
#172=ORIENTED_EDGE('',*,*,#227,.F.);
#173=ORIENTED_EDGE('',*,*,#225,.F.);
#174=ORIENTED_EDGE('',*,*,#223,.F.);
#175=ORIENTED_EDGE('',*,*,#221,.T.);
#176=ORIENTED_EDGE('',*,*,#219,.T.);
#177=ORIENTED_EDGE('',*,*,#217,.T.);
#178=ORIENTED_EDGE('',*,*,#215,.T.);
#179=ORIENTED_EDGE('',*,*,#245,.T.);
#180=ORIENTED_EDGE('',*,*,#246,.F.);
#181=ORIENTED_EDGE('',*,*,#208,.F.);
#182=ORIENTED_EDGE('',*,*,#249,.F.);
#183=ORIENTED_EDGE('',*,*,#211,.F.);
#184=ORIENTED_EDGE('',*,*,#247,.F.);
#185=ORIENTED_EDGE('',*,*,#193,.F.);
#186=ORIENTED_EDGE('',*,*,#251,.F.);
#187=ORIENTED_EDGE('',*,*,#197,.F.);
#188=ORIENTED_EDGE('',*,*,#248,.F.);
#189=ORIENTED_EDGE('',*,*,#199,.F.);
#190=ORIENTED_EDGE('',*,*,#250,.F.);
#191=ORIENTED_EDGE('',*,*,#201,.F.);
#192=EDGE_CURVE('',#252,#253,#302,.T.);
#193=EDGE_CURVE('',#252,#254,#303,.F.);
#194=EDGE_CURVE('',#254,#255,#304,.T.);
#195=EDGE_CURVE('',#255,#253,#305,.T.);
#196=EDGE_CURVE('',#256,#257,#306,.T.);
#197=EDGE_CURVE('',#257,#258,#307,.T.);
#198=EDGE_CURVE('',#259,#258,#308,.T.);
#199=EDGE_CURVE('',#259,#256,#309,.F.);
#200=EDGE_CURVE('',#260,#261,#310,.T.);
#201=EDGE_CURVE('',#260,#262,#311,.T.);
#202=EDGE_CURVE('',#262,#263,#312,.T.);
#203=EDGE_CURVE('',#261,#263,#313,.T.);
#204=EDGE_CURVE('',#263,#264,#12,.T.);
#205=EDGE_CURVE('',#265,#264,#314,.T.);
#206=EDGE_CURVE('',#261,#265,#13,.T.);
#207=EDGE_CURVE('',#266,#264,#315,.T.);
#208=EDGE_CURVE('',#266,#267,#316,.F.);
#209=EDGE_CURVE('',#267,#265,#317,.T.);
#210=EDGE_CURVE('',#268,#269,#318,.T.);
#211=EDGE_CURVE('',#268,#270,#319,.T.);
#212=EDGE_CURVE('',#270,#271,#320,.T.);
#213=EDGE_CURVE('',#269,#271,#321,.T.);
#214=EDGE_CURVE('',#272,#272,#14,.T.);
#215=EDGE_CURVE('',#273,#273,#15,.T.);
#216=EDGE_CURVE('',#274,#274,#16,.T.);
#217=EDGE_CURVE('',#275,#275,#17,.T.);
#218=EDGE_CURVE('',#276,#276,#18,.T.);
#219=EDGE_CURVE('',#277,#277,#19,.T.);
#220=EDGE_CURVE('',#278,#278,#20,.T.);
#221=EDGE_CURVE('',#279,#279,#21,.T.);
#222=EDGE_CURVE('',#280,#280,#22,.T.);
#223=EDGE_CURVE('',#281,#281,#23,.T.);
#224=EDGE_CURVE('',#282,#282,#24,.T.);
#225=EDGE_CURVE('',#283,#283,#25,.T.);
#226=EDGE_CURVE('',#284,#284,#26,.T.);
#227=EDGE_CURVE('',#285,#285,#27,.T.);
#228=EDGE_CURVE('',#286,#286,#28,.T.);
#229=EDGE_CURVE('',#287,#287,#29,.T.);
#230=EDGE_CURVE('',#288,#288,#30,.T.);
#231=EDGE_CURVE('',#289,#289,#31,.T.);
#232=EDGE_CURVE('',#290,#290,#32,.T.);
#233=EDGE_CURVE('',#291,#291,#33,.T.);
#234=EDGE_CURVE('',#292,#292,#34,.T.);
#235=EDGE_CURVE('',#293,#293,#35,.T.);
#236=EDGE_CURVE('',#294,#294,#36,.T.);
#237=EDGE_CURVE('',#295,#295,#37,.T.);
#238=EDGE_CURVE('',#296,#296,#38,.T.);
#239=EDGE_CURVE('',#297,#297,#39,.T.);
#240=EDGE_CURVE('',#298,#298,#40,.T.);
#241=EDGE_CURVE('',#299,#299,#41,.T.);
#242=EDGE_CURVE('',#271,#253,#42,.T.);
#243=EDGE_CURVE('',#269,#255,#43,.T.);
#244=EDGE_CURVE('',#300,#300,#44,.T.);
#245=EDGE_CURVE('',#301,#301,#45,.T.);
#246=EDGE_CURVE('',#267,#268,#46,.T.);
#247=EDGE_CURVE('',#254,#257,#47,.T.);
#248=EDGE_CURVE('',#256,#260,#48,.T.);
#249=EDGE_CURVE('',#270,#266,#49,.F.);
#250=EDGE_CURVE('',#262,#259,#50,.F.);
#251=EDGE_CURVE('',#258,#252,#51,.F.);
#252=VERTEX_POINT('',#759);
#253=VERTEX_POINT('',#760);
#254=VERTEX_POINT('',#762);
#255=VERTEX_POINT('',#764);
#256=VERTEX_POINT('',#768);
#257=VERTEX_POINT('',#769);
#258=VERTEX_POINT('',#771);
#259=VERTEX_POINT('',#773);
#260=VERTEX_POINT('',#777);
#261=VERTEX_POINT('',#778);
#262=VERTEX_POINT('',#780);
#263=VERTEX_POINT('',#782);
#264=VERTEX_POINT('',#786);
#265=VERTEX_POINT('',#788);
#266=VERTEX_POINT('',#792);
#267=VERTEX_POINT('',#794);
#268=VERTEX_POINT('',#798);
#269=VERTEX_POINT('',#799);
#270=VERTEX_POINT('',#801);
#271=VERTEX_POINT('',#803);
#272=VERTEX_POINT('',#807);
#273=VERTEX_POINT('',#809);
#274=VERTEX_POINT('',#812);
#275=VERTEX_POINT('',#814);
#276=VERTEX_POINT('',#817);
#277=VERTEX_POINT('',#819);
#278=VERTEX_POINT('',#822);
#279=VERTEX_POINT('',#824);
#280=VERTEX_POINT('',#827);
#281=VERTEX_POINT('',#829);
#282=VERTEX_POINT('',#832);
#283=VERTEX_POINT('',#834);
#284=VERTEX_POINT('',#837);
#285=VERTEX_POINT('',#839);
#286=VERTEX_POINT('',#842);
#287=VERTEX_POINT('',#844);
#288=VERTEX_POINT('',#847);
#289=VERTEX_POINT('',#849);
#290=VERTEX_POINT('',#852);
#291=VERTEX_POINT('',#854);
#292=VERTEX_POINT('',#857);
#293=VERTEX_POINT('',#859);
#294=VERTEX_POINT('',#862);
#295=VERTEX_POINT('',#864);
#296=VERTEX_POINT('',#867);
#297=VERTEX_POINT('',#869);
#298=VERTEX_POINT('',#872);
#299=VERTEX_POINT('',#874);
#300=VERTEX_POINT('',#880);
#301=VERTEX_POINT('',#882);
#302=LINE('',#758,#322);
#303=LINE('',#761,#323);
#304=LINE('',#763,#324);
#305=LINE('',#765,#325);
#306=LINE('',#767,#326);
#307=LINE('',#770,#327);
#308=LINE('',#772,#328);
#309=LINE('',#774,#329);
#310=LINE('',#776,#330);
#311=LINE('',#779,#331);
#312=LINE('',#781,#332);
#313=LINE('',#783,#333);
#314=LINE('',#787,#334);
#315=LINE('',#791,#335);
#316=LINE('',#793,#336);
#317=LINE('',#795,#337);
#318=LINE('',#797,#338);
#319=LINE('',#800,#339);
#320=LINE('',#802,#340);
#321=LINE('',#804,#341);
#322=VECTOR('',#604,1.);
#323=VECTOR('',#605,1.);
#324=VECTOR('',#606,1.);
#325=VECTOR('',#607,1.);
#326=VECTOR('',#610,1.);
#327=VECTOR('',#611,1.);
#328=VECTOR('',#612,1.);
#329=VECTOR('',#613,1.);
#330=VECTOR('',#616,1.);
#331=VECTOR('',#617,1.);
#332=VECTOR('',#618,1.);
#333=VECTOR('',#619,1.);
#334=VECTOR('',#624,1.);
#335=VECTOR('',#629,1.);
#336=VECTOR('',#630,1.);
#337=VECTOR('',#631,1.);
#338=VECTOR('',#634,1.);
#339=VECTOR('',#635,1.);
#340=VECTOR('',#636,1.);
#341=VECTOR('',#637,1.);
#342=EDGE_LOOP('',(#72,#73,#74,#75));
#343=EDGE_LOOP('',(#76,#77,#78,#79));
#344=EDGE_LOOP('',(#80,#81,#82,#83));
#345=EDGE_LOOP('',(#84,#85,#86,#87));
#346=EDGE_LOOP('',(#88,#89,#90,#91));
#347=EDGE_LOOP('',(#92,#93,#94,#95));
#348=EDGE_LOOP('',(#96));
#349=EDGE_LOOP('',(#97));
#350=EDGE_LOOP('',(#98));
#351=EDGE_LOOP('',(#99));
#352=EDGE_LOOP('',(#100));
#353=EDGE_LOOP('',(#101));
#354=EDGE_LOOP('',(#102));
#355=EDGE_LOOP('',(#103));
#356=EDGE_LOOP('',(#104));
#357=EDGE_LOOP('',(#105));
#358=EDGE_LOOP('',(#106));
#359=EDGE_LOOP('',(#107));
#360=EDGE_LOOP('',(#108));
#361=EDGE_LOOP('',(#109));
#362=EDGE_LOOP('',(#110));
#363=EDGE_LOOP('',(#111));
#364=EDGE_LOOP('',(#112));
#365=EDGE_LOOP('',(#113));
#366=EDGE_LOOP('',(#114));
#367=EDGE_LOOP('',(#115));
#368=EDGE_LOOP('',(#116));
#369=EDGE_LOOP('',(#117));
#370=EDGE_LOOP('',(#118));
#371=EDGE_LOOP('',(#119));
#372=EDGE_LOOP('',(#120));
#373=EDGE_LOOP('',(#121));
#374=EDGE_LOOP('',(#122));
#375=EDGE_LOOP('',(#123));
#376=EDGE_LOOP('',(#124,#125,#126,#127));
#377=EDGE_LOOP('',(#128));
#378=EDGE_LOOP('',(#129));
#379=EDGE_LOOP('',(#130,#131,#132,#133,#134,#135,#136,#137,#138,#139));
#380=EDGE_LOOP('',(#140));
#381=EDGE_LOOP('',(#141));
#382=EDGE_LOOP('',(#142));
#383=EDGE_LOOP('',(#143));
#384=EDGE_LOOP('',(#144));
#385=EDGE_LOOP('',(#145));
#386=EDGE_LOOP('',(#146));
#387=EDGE_LOOP('',(#147));
#388=EDGE_LOOP('',(#148));
#389=EDGE_LOOP('',(#149));
#390=EDGE_LOOP('',(#150));
#391=EDGE_LOOP('',(#151));
#392=EDGE_LOOP('',(#152));
#393=EDGE_LOOP('',(#153));
#394=EDGE_LOOP('',(#154));
#395=EDGE_LOOP('',(#155,#156,#157,#158,#159,#160,#161,#162,#163,#164));
#396=EDGE_LOOP('',(#165));
#397=EDGE_LOOP('',(#166));
#398=EDGE_LOOP('',(#167));
#399=EDGE_LOOP('',(#168));
#400=EDGE_LOOP('',(#169));
#401=EDGE_LOOP('',(#170));
#402=EDGE_LOOP('',(#171));
#403=EDGE_LOOP('',(#172));
#404=EDGE_LOOP('',(#173));
#405=EDGE_LOOP('',(#174));
#406=EDGE_LOOP('',(#175));
#407=EDGE_LOOP('',(#176));
#408=EDGE_LOOP('',(#177));
#409=EDGE_LOOP('',(#178));
#410=EDGE_LOOP('',(#179));
#411=EDGE_LOOP('',(#180,#181,#182,#183));
#412=EDGE_LOOP('',(#184,#185,#186,#187));
#413=EDGE_LOOP('',(#188,#189,#190,#191));
#414=FACE_BOUND('',#342,.T.);
#415=FACE_BOUND('',#343,.T.);
#416=FACE_BOUND('',#344,.T.);
#417=FACE_BOUND('',#345,.T.);
#418=FACE_BOUND('',#346,.T.);
#419=FACE_BOUND('',#347,.T.);
#420=FACE_BOUND('',#348,.T.);
#421=FACE_BOUND('',#349,.T.);
#422=FACE_BOUND('',#350,.T.);
#423=FACE_BOUND('',#351,.T.);
#424=FACE_BOUND('',#352,.T.);
#425=FACE_BOUND('',#353,.T.);
#426=FACE_BOUND('',#354,.T.);
#427=FACE_BOUND('',#355,.T.);
#428=FACE_BOUND('',#356,.T.);
#429=FACE_BOUND('',#357,.T.);
#430=FACE_BOUND('',#358,.T.);
#431=FACE_BOUND('',#359,.T.);
#432=FACE_BOUND('',#360,.T.);
#433=FACE_BOUND('',#361,.T.);
#434=FACE_BOUND('',#362,.T.);
#435=FACE_BOUND('',#363,.T.);
#436=FACE_BOUND('',#364,.T.);
#437=FACE_BOUND('',#365,.T.);
#438=FACE_BOUND('',#366,.T.);
#439=FACE_BOUND('',#367,.T.);
#440=FACE_BOUND('',#368,.T.);
#441=FACE_BOUND('',#369,.T.);
#442=FACE_BOUND('',#370,.T.);
#443=FACE_BOUND('',#371,.T.);
#444=FACE_BOUND('',#372,.T.);
#445=FACE_BOUND('',#373,.T.);
#446=FACE_BOUND('',#374,.T.);
#447=FACE_BOUND('',#375,.T.);
#448=FACE_BOUND('',#376,.T.);
#449=FACE_BOUND('',#377,.T.);
#450=FACE_BOUND('',#378,.T.);
#451=FACE_BOUND('',#379,.T.);
#452=FACE_BOUND('',#380,.T.);
#453=FACE_BOUND('',#381,.T.);
#454=FACE_BOUND('',#382,.T.);
#455=FACE_BOUND('',#383,.T.);
#456=FACE_BOUND('',#384,.T.);
#457=FACE_BOUND('',#385,.T.);
#458=FACE_BOUND('',#386,.T.);
#459=FACE_BOUND('',#387,.T.);
#460=FACE_BOUND('',#388,.T.);
#461=FACE_BOUND('',#389,.T.);
#462=FACE_BOUND('',#390,.T.);
#463=FACE_BOUND('',#391,.T.);
#464=FACE_BOUND('',#392,.T.);
#465=FACE_BOUND('',#393,.T.);
#466=FACE_BOUND('',#394,.T.);
#467=FACE_BOUND('',#395,.T.);
#468=FACE_BOUND('',#396,.T.);
#469=FACE_BOUND('',#397,.T.);
#470=FACE_BOUND('',#398,.T.);
#471=FACE_BOUND('',#399,.T.);
#472=FACE_BOUND('',#400,.T.);
#473=FACE_BOUND('',#401,.T.);
#474=FACE_BOUND('',#402,.T.);
#475=FACE_BOUND('',#403,.T.);
#476=FACE_BOUND('',#404,.T.);
#477=FACE_BOUND('',#405,.T.);
#478=FACE_BOUND('',#406,.T.);
#479=FACE_BOUND('',#407,.T.);
#480=FACE_BOUND('',#408,.T.);
#481=FACE_BOUND('',#409,.T.);
#482=FACE_BOUND('',#410,.T.);
#483=FACE_BOUND('',#411,.T.);
#484=FACE_BOUND('',#412,.T.);
#485=FACE_BOUND('',#413,.T.);
#486=PLANE('',#533);
#487=PLANE('',#534);
#488=PLANE('',#535);
#489=PLANE('',#539);
#490=PLANE('',#540);
#491=PLANE('',#589);
#492=PLANE('',#593);
#493=ADVANCED_FACE('',(#414),#486,.T.);
#494=ADVANCED_FACE('',(#415),#487,.T.);
#495=ADVANCED_FACE('',(#416),#488,.F.);
#496=ADVANCED_FACE('',(#417),#52,.T.);
#497=ADVANCED_FACE('',(#418),#489,.T.);
#498=ADVANCED_FACE('',(#419),#490,.F.);
#499=ADVANCED_FACE('',(#420,#421),#53,.F.);
#500=ADVANCED_FACE('',(#422,#423),#54,.F.);
#501=ADVANCED_FACE('',(#424,#425),#55,.F.);
#502=ADVANCED_FACE('',(#426,#427),#56,.F.);
#503=ADVANCED_FACE('',(#428,#429),#57,.F.);
#504=ADVANCED_FACE('',(#430,#431),#58,.F.);
#505=ADVANCED_FACE('',(#432,#433),#59,.F.);
#506=ADVANCED_FACE('',(#434,#435),#60,.F.);
#507=ADVANCED_FACE('',(#436,#437),#61,.F.);
#508=ADVANCED_FACE('',(#438,#439),#62,.F.);
#509=ADVANCED_FACE('',(#440,#441),#63,.F.);
#510=ADVANCED_FACE('',(#442,#443),#64,.F.);
#511=ADVANCED_FACE('',(#444,#445),#65,.F.);
#512=ADVANCED_FACE('',(#446,#447),#66,.F.);
#513=ADVANCED_FACE('',(#448),#67,.T.);
#514=ADVANCED_FACE('',(#449,#450),#68,.F.);
#515=ADVANCED_FACE('',(#451,#452,#453,#454,#455,#456,#457,#458,#459,#460,
#461,#462,#463,#464,#465,#466),#491,.T.);
#516=ADVANCED_FACE('',(#467,#468,#469,#470,#471,#472,#473,#474,#475,#476,
#477,#478,#479,#480,#481,#482),#492,.F.);
#517=ADVANCED_FACE('',(#483),#69,.T.);
#518=ADVANCED_FACE('',(#484),#70,.T.);
#519=ADVANCED_FACE('',(#485),#71,.T.);
#520=CLOSED_SHELL('',(#493,#494,#495,#496,#497,#498,#499,#500,#501,#502,
#503,#504,#505,#506,#507,#508,#509,#510,#511,#512,#513,#514,#515,#516,#517,
#518,#519));
#521=STYLED_ITEM('',(#522),#529);
#522=PRESENTATION_STYLE_ASSIGNMENT((#523));
#523=SURFACE_STYLE_USAGE(.BOTH.,#524);
#524=SURFACE_SIDE_STYLE('',(#525));
#525=SURFACE_STYLE_FILL_AREA(#526);
#526=FILL_AREA_STYLE('',(#527));
#527=FILL_AREA_STYLE_COLOUR('',#528);
#528=COLOUR_RGB('',0.768627450980392,0.886274509803922,0.952941176470588);
#529=MANIFOLD_SOLID_BREP('Pusher',#520);
#530=SHAPE_DEFINITION_REPRESENTATION(#900,#531);
#531=SHAPE_REPRESENTATION('Pusher',(#532),#895);
#532=AXIS2_PLACEMENT_3D('',#756,#600,#601);
#533=AXIS2_PLACEMENT_3D('',#757,#602,#603);
#534=AXIS2_PLACEMENT_3D('',#766,#608,#609);
#535=AXIS2_PLACEMENT_3D('',#775,#614,#615);
#536=AXIS2_PLACEMENT_3D('',#784,#620,#621);
#537=AXIS2_PLACEMENT_3D('',#785,#622,#623);
#538=AXIS2_PLACEMENT_3D('',#789,#625,#626);
#539=AXIS2_PLACEMENT_3D('',#790,#627,#628);
#540=AXIS2_PLACEMENT_3D('',#796,#632,#633);
#541=AXIS2_PLACEMENT_3D('',#805,#638,#639);
#542=AXIS2_PLACEMENT_3D('',#806,#640,#641);
#543=AXIS2_PLACEMENT_3D('',#808,#642,#643);
#544=AXIS2_PLACEMENT_3D('',#810,#644,#645);
#545=AXIS2_PLACEMENT_3D('',#811,#646,#647);
#546=AXIS2_PLACEMENT_3D('',#813,#648,#649);
#547=AXIS2_PLACEMENT_3D('',#815,#650,#651);
#548=AXIS2_PLACEMENT_3D('',#816,#652,#653);
#549=AXIS2_PLACEMENT_3D('',#818,#654,#655);
#550=AXIS2_PLACEMENT_3D('',#820,#656,#657);
#551=AXIS2_PLACEMENT_3D('',#821,#658,#659);
#552=AXIS2_PLACEMENT_3D('',#823,#660,#661);
#553=AXIS2_PLACEMENT_3D('',#825,#662,#663);
#554=AXIS2_PLACEMENT_3D('',#826,#664,#665);
#555=AXIS2_PLACEMENT_3D('',#828,#666,#667);
#556=AXIS2_PLACEMENT_3D('',#830,#668,#669);
#557=AXIS2_PLACEMENT_3D('',#831,#670,#671);
#558=AXIS2_PLACEMENT_3D('',#833,#672,#673);
#559=AXIS2_PLACEMENT_3D('',#835,#674,#675);
#560=AXIS2_PLACEMENT_3D('',#836,#676,#677);
#561=AXIS2_PLACEMENT_3D('',#838,#678,#679);
#562=AXIS2_PLACEMENT_3D('',#840,#680,#681);
#563=AXIS2_PLACEMENT_3D('',#841,#682,#683);
#564=AXIS2_PLACEMENT_3D('',#843,#684,#685);
#565=AXIS2_PLACEMENT_3D('',#845,#686,#687);
#566=AXIS2_PLACEMENT_3D('',#846,#688,#689);
#567=AXIS2_PLACEMENT_3D('',#848,#690,#691);
#568=AXIS2_PLACEMENT_3D('',#850,#692,#693);
#569=AXIS2_PLACEMENT_3D('',#851,#694,#695);
#570=AXIS2_PLACEMENT_3D('',#853,#696,#697);
#571=AXIS2_PLACEMENT_3D('',#855,#698,#699);
#572=AXIS2_PLACEMENT_3D('',#856,#700,#701);
#573=AXIS2_PLACEMENT_3D('',#858,#702,#703);
#574=AXIS2_PLACEMENT_3D('',#860,#704,#705);
#575=AXIS2_PLACEMENT_3D('',#861,#706,#707);
#576=AXIS2_PLACEMENT_3D('',#863,#708,#709);
#577=AXIS2_PLACEMENT_3D('',#865,#710,#711);
#578=AXIS2_PLACEMENT_3D('',#866,#712,#713);
#579=AXIS2_PLACEMENT_3D('',#868,#714,#715);
#580=AXIS2_PLACEMENT_3D('',#870,#716,#717);
#581=AXIS2_PLACEMENT_3D('',#871,#718,#719);
#582=AXIS2_PLACEMENT_3D('',#873,#720,#721);
#583=AXIS2_PLACEMENT_3D('',#875,#722,#723);
#584=AXIS2_PLACEMENT_3D('',#876,#724,#725);
#585=AXIS2_PLACEMENT_3D('',#877,#726,#727);
#586=AXIS2_PLACEMENT_3D('',#878,#728,#729);
#587=AXIS2_PLACEMENT_3D('',#879,#730,#731);
#588=AXIS2_PLACEMENT_3D('',#881,#732,#733);
#589=AXIS2_PLACEMENT_3D('',#883,#734,#735);
#590=AXIS2_PLACEMENT_3D('',#884,#736,#737);
#591=AXIS2_PLACEMENT_3D('',#885,#738,#739);
#592=AXIS2_PLACEMENT_3D('',#886,#740,#741);
#593=AXIS2_PLACEMENT_3D('',#887,#742,#743);
#594=AXIS2_PLACEMENT_3D('',#888,#744,#745);
#595=AXIS2_PLACEMENT_3D('',#889,#746,#747);
#596=AXIS2_PLACEMENT_3D('',#890,#748,#749);
#597=AXIS2_PLACEMENT_3D('',#891,#750,#751);
#598=AXIS2_PLACEMENT_3D('',#892,#752,#753);
#599=AXIS2_PLACEMENT_3D('',#893,#754,#755);
#600=DIRECTION('',(0.,0.,1.));
#601=DIRECTION('',(1.,0.,0.));
#602=DIRECTION('',(-0.776797368936104,-6.09004376154468E-17,-0.629750623353361));
#603=DIRECTION('',(-0.629750623353361,0.,0.776797368936104));
#604=DIRECTION('',(-0.629750623353361,6.36680099435473E-18,0.776797368936104));
#605=DIRECTION('',(-4.32978028117747E-17,1.,-4.32978028117746E-17));
#606=DIRECTION('',(-0.629750623353361,6.36680099435473E-18,0.776797368936104));
#607=DIRECTION('',(-4.32978028117747E-17,1.,-4.32978028117746E-17));
#608=DIRECTION('',(0.,-4.32978028117746E-17,-1.));
#609=DIRECTION('',(0.,1.,-4.32978028117746E-17));
#610=DIRECTION('',(-1.,-4.32978028117747E-17,1.87469972832732E-33));
#611=DIRECTION('',(-4.32978028117747E-17,1.,-4.32978028117746E-17));
#612=DIRECTION('',(-1.,-4.32978028117747E-17,1.87469972832732E-33));
#613=DIRECTION('',(-4.32978028117747E-17,1.,-4.32978028117746E-17));
#614=DIRECTION('',(-0.776797368936104,-6.36680099435483E-18,0.629750623353361));
#615=DIRECTION('',(0.629750623353361,0.,0.776797368936104));
#616=DIRECTION('',(0.629750623353361,6.09004376154468E-17,0.776797368936104));
#617=DIRECTION('',(-4.32978028117747E-17,1.,-4.32978028117746E-17));
#618=DIRECTION('',(0.629750623353361,6.09004376154468E-17,0.776797368936104));
#619=DIRECTION('',(-4.32978028117747E-17,1.,-4.32978028117746E-17));
#620=DIRECTION('',(-4.32978028117747E-17,1.,-4.32978028117746E-17));
#621=DIRECTION('',(-1.,-4.32978028117747E-17,0.));
#622=DIRECTION('',(4.32978028117747E-17,-1.,4.32978028117746E-17));
#623=DIRECTION('',(1.,4.32978028117747E-17,0.));
#624=DIRECTION('',(-4.32978028117747E-17,1.,-4.32978028117746E-17));
#625=DIRECTION('',(4.32978028117747E-17,-1.,4.32978028117746E-17));
#626=DIRECTION('',(1.,4.32978028117747E-17,0.));
#627=DIRECTION('',(0.305007633610036,5.44408188135106E-17,0.952349905990233));
#628=DIRECTION('',(0.952349905990233,0.,-0.305007633610036));
#629=DIRECTION('',(0.952349905990233,2.8028498061244E-17,-0.305007633610036));
#630=DIRECTION('',(-4.32978028117747E-17,1.,-4.32978028117746E-17));
#631=DIRECTION('',(0.952349905990233,2.8028498061244E-17,-0.305007633610036));
#632=DIRECTION('',(0.305007633610036,-2.80284980612439E-17,-0.952349905990233));
#633=DIRECTION('',(-0.952349905990233,0.,-0.305007633610036));
#634=DIRECTION('',(-0.952349905990233,-5.44408188135106E-17,-0.305007633610036));
#635=DIRECTION('',(-4.32978028117747E-17,1.,-4.32978028117746E-17));
#636=DIRECTION('',(-0.952349905990233,-5.44408188135106E-17,-0.305007633610036));
#637=DIRECTION('',(-4.32978028117747E-17,1.,-4.32978028117746E-17));
#638=DIRECTION('',(-4.32978028117747E-17,1.,-4.32978028117746E-17));
#639=DIRECTION('',(-1.,-4.32978028117747E-17,0.));
#640=DIRECTION('',(4.32978028117747E-17,-1.,4.32978028117746E-17));
#641=DIRECTION('',(1.,4.32978028117747E-17,0.));
#642=DIRECTION('',(4.32978028117747E-17,-1.,4.32978028117746E-17));
#643=DIRECTION('',(1.,4.32978028117747E-17,0.));
#644=DIRECTION('',(-4.32978028117747E-17,1.,-4.32978028117746E-17));
#645=DIRECTION('',(-1.,-4.32978028117747E-17,0.));
#646=DIRECTION('',(4.32978028117747E-17,-1.,4.32978028117746E-17));
#647=DIRECTION('',(1.,4.32978028117747E-17,0.));
#648=DIRECTION('',(4.32978028117747E-17,-1.,4.32978028117746E-17));
#649=DIRECTION('',(1.,4.32978028117747E-17,0.));
#650=DIRECTION('',(-4.32978028117747E-17,1.,-4.32978028117746E-17));
#651=DIRECTION('',(-1.,-4.32978028117747E-17,0.));
#652=DIRECTION('',(4.32978028117747E-17,-1.,4.32978028117746E-17));
#653=DIRECTION('',(1.,4.32978028117747E-17,0.));
#654=DIRECTION('',(4.32978028117747E-17,-1.,4.32978028117746E-17));
#655=DIRECTION('',(1.,4.32978028117747E-17,0.));
#656=DIRECTION('',(-4.32978028117747E-17,1.,-4.32978028117746E-17));
#657=DIRECTION('',(-1.,-4.32978028117747E-17,0.));
#658=DIRECTION('',(4.32978028117747E-17,-1.,4.32978028117746E-17));
#659=DIRECTION('',(1.,4.32978028117747E-17,0.));
#660=DIRECTION('',(4.32978028117747E-17,-1.,4.32978028117746E-17));
#661=DIRECTION('',(1.,4.32978028117747E-17,0.));
#662=DIRECTION('',(-4.32978028117747E-17,1.,-4.32978028117746E-17));
#663=DIRECTION('',(-1.,-4.32978028117747E-17,0.));
#664=DIRECTION('',(-4.32978028117747E-17,1.,-4.32978028117746E-17));
#665=DIRECTION('',(1.,4.32978028117747E-17,0.));
#666=DIRECTION('',(-4.32978028117747E-17,1.,-4.32978028117746E-17));
#667=DIRECTION('',(1.,4.32978028117747E-17,0.));
#668=DIRECTION('',(-4.32978028117747E-17,1.,-4.32978028117746E-17));
#669=DIRECTION('',(-1.,-4.32978028117747E-17,0.));
#670=DIRECTION('',(-4.32978028117747E-17,1.,-4.32978028117746E-17));
#671=DIRECTION('',(1.,4.32978028117747E-17,0.));
#672=DIRECTION('',(-4.32978028117747E-17,1.,-4.32978028117746E-17));
#673=DIRECTION('',(1.,4.32978028117747E-17,0.));
#674=DIRECTION('',(-4.32978028117747E-17,1.,-4.32978028117746E-17));
#675=DIRECTION('',(-1.,-4.32978028117747E-17,0.));
#676=DIRECTION('',(-4.32978028117747E-17,1.,-4.32978028117746E-17));
#677=DIRECTION('',(1.,4.32978028117747E-17,0.));
#678=DIRECTION('',(-4.32978028117747E-17,1.,-4.32978028117746E-17));
#679=DIRECTION('',(1.,4.32978028117747E-17,0.));
#680=DIRECTION('',(-4.32978028117747E-17,1.,-4.32978028117746E-17));
#681=DIRECTION('',(-1.,-4.32978028117747E-17,0.));
#682=DIRECTION('',(-4.32978028117747E-17,1.,-4.32978028117746E-17));
#683=DIRECTION('',(1.,4.32978028117747E-17,0.));
#684=DIRECTION('',(-4.32978028117747E-17,1.,-4.32978028117746E-17));
#685=DIRECTION('',(1.,4.32978028117747E-17,0.));
#686=DIRECTION('',(-4.32978028117747E-17,1.,-4.32978028117746E-17));
#687=DIRECTION('',(-1.,-4.32978028117747E-17,0.));
#688=DIRECTION('',(-4.32978028117747E-17,1.,-4.32978028117746E-17));
#689=DIRECTION('',(1.,4.32978028117747E-17,0.));
#690=DIRECTION('',(-4.32978028117747E-17,1.,-4.32978028117746E-17));
#691=DIRECTION('',(1.,4.32978028117747E-17,0.));
#692=DIRECTION('',(-4.32978028117747E-17,1.,-4.32978028117746E-17));
#693=DIRECTION('',(-1.,-4.32978028117747E-17,0.));
#694=DIRECTION('',(4.32978028117747E-17,-1.,4.32978028117746E-17));
#695=DIRECTION('',(1.,4.32978028117747E-17,0.));
#696=DIRECTION('',(4.32978028117747E-17,-1.,4.32978028117746E-17));
#697=DIRECTION('',(1.,4.32978028117747E-17,0.));
#698=DIRECTION('',(-4.32978028117747E-17,1.,-4.32978028117746E-17));
#699=DIRECTION('',(-1.,-4.32978028117747E-17,0.));
#700=DIRECTION('',(4.32978028117747E-17,-1.,4.32978028117746E-17));
#701=DIRECTION('',(1.,4.32978028117747E-17,0.));
#702=DIRECTION('',(4.32978028117747E-17,-1.,4.32978028117746E-17));
#703=DIRECTION('',(1.,4.32978028117747E-17,0.));
#704=DIRECTION('',(-4.32978028117747E-17,1.,-4.32978028117746E-17));
#705=DIRECTION('',(-1.,-4.32978028117747E-17,0.));
#706=DIRECTION('',(4.32978028117747E-17,-1.,4.32978028117746E-17));
#707=DIRECTION('',(1.,4.32978028117747E-17,0.));
#708=DIRECTION('',(4.32978028117747E-17,-1.,4.32978028117746E-17));
#709=DIRECTION('',(1.,4.32978028117747E-17,0.));
#710=DIRECTION('',(-4.32978028117747E-17,1.,-4.32978028117746E-17));
#711=DIRECTION('',(-1.,-4.32978028117747E-17,0.));
#712=DIRECTION('',(4.32978028117747E-17,-1.,4.32978028117746E-17));
#713=DIRECTION('',(1.,4.32978028117747E-17,0.));
#714=DIRECTION('',(4.32978028117747E-17,-1.,4.32978028117746E-17));
#715=DIRECTION('',(1.,4.32978028117747E-17,0.));
#716=DIRECTION('',(-4.32978028117747E-17,1.,-4.32978028117746E-17));
#717=DIRECTION('',(-1.,-4.32978028117747E-17,0.));
#718=DIRECTION('',(4.32978028117747E-17,-1.,4.32978028117746E-17));
#719=DIRECTION('',(1.,4.32978028117747E-17,0.));
#720=DIRECTION('',(4.32978028117747E-17,-1.,4.32978028117746E-17));
#721=DIRECTION('',(1.,4.32978028117747E-17,0.));
#722=DIRECTION('',(-4.32978028117747E-17,1.,-4.32978028117746E-17));
#723=DIRECTION('',(-1.,-4.32978028117747E-17,0.));
#724=DIRECTION('',(4.32978028117747E-17,-1.,4.32978028117746E-17));
#725=DIRECTION('',(1.,4.32978028117747E-17,0.));
#726=DIRECTION('',(4.32978028117747E-17,-1.,4.32978028117746E-17));
#727=DIRECTION('',(1.,4.32978028117747E-17,0.));
#728=DIRECTION('',(-4.32978028117747E-17,1.,-4.32978028117746E-17));
#729=DIRECTION('',(-1.,-4.32978028117747E-17,0.));
#730=DIRECTION('',(4.32978028117747E-17,-1.,4.32978028117746E-17));
#731=DIRECTION('',(1.,4.32978028117747E-17,0.));
#732=DIRECTION('',(4.32978028117747E-17,-1.,4.32978028117746E-17));
#733=DIRECTION('',(1.,4.32978028117747E-17,0.));
#734=DIRECTION('',(4.32978028117747E-17,-1.,4.32978028117746E-17));
#735=DIRECTION('',(1.,4.32978028117747E-17,-1.87469972832732E-33));
#736=DIRECTION('',(4.32978028117747E-17,-1.,4.32978028117746E-17));
#737=DIRECTION('',(1.,4.32978028117747E-17,0.));
#738=DIRECTION('',(4.32978028117747E-17,-1.,4.32978028117746E-17));
#739=DIRECTION('',(1.,4.32978028117747E-17,0.));
#740=DIRECTION('',(4.32978028117747E-17,-1.,4.32978028117746E-17));
#741=DIRECTION('',(1.,4.32978028117747E-17,0.));
#742=DIRECTION('',(4.32978028117747E-17,-1.,4.32978028117746E-17));
#743=DIRECTION('',(1.,4.32978028117747E-17,-1.87469972832732E-33));
#744=DIRECTION('',(4.32978028117747E-17,-1.,4.32978028117746E-17));
#745=DIRECTION('',(1.,4.32978028117747E-17,0.));
#746=DIRECTION('',(4.32978028117747E-17,-1.,4.32978028117746E-17));
#747=DIRECTION('',(1.,4.32978028117747E-17,0.));
#748=DIRECTION('',(4.32978028117747E-17,-1.,4.32978028117746E-17));
#749=DIRECTION('',(1.,4.32978028117747E-17,0.));
#750=DIRECTION('',(4.32978028117747E-17,-1.,4.32978028117746E-17));
#751=DIRECTION('',(1.,4.32978028117747E-17,0.));
#752=DIRECTION('',(-4.32978028117747E-17,1.,-4.32978028117746E-17));
#753=DIRECTION('',(-1.,-4.32978028117747E-17,0.));
#754=DIRECTION('',(4.32978028117747E-17,-1.,4.32978028117746E-17));
#755=DIRECTION('',(1.,4.32978028117747E-17,0.));
#756=CARTESIAN_POINT('',(0.,0.,0.));
#757=CARTESIAN_POINT('',(-0.0503254628885691,-0.125,-0.00617416979381994));
#758=CARTESIAN_POINT('',(-0.0503254628885691,-0.115,-0.00617416979381994));
#759=CARTESIAN_POINT('',(-0.0459665948438832,-0.115,-0.0115508333541063));
#760=CARTESIAN_POINT('',(-0.0576859473787221,-0.115,0.00290498753293284));
#761=CARTESIAN_POINT('',(-0.0459665948438832,-0.125,-0.0115508333541063));
#762=CARTESIAN_POINT('',(-0.0459665948438832,-0.125,-0.0115508333541063));
#763=CARTESIAN_POINT('',(-0.0503254628885691,-0.125,-0.00617416979381994));
#764=CARTESIAN_POINT('',(-0.0576859473787221,-0.125,0.00290498753293284));
#765=CARTESIAN_POINT('',(-0.0576859473787221,-0.125,0.00290498753293284));
#766=CARTESIAN_POINT('',(7.37187193202498E-18,-0.125,-0.0152533271205728));
#767=CARTESIAN_POINT('',(7.37187193202498E-18,-0.125,-0.0152533271205728));
#768=CARTESIAN_POINT('',(0.0381986211545222,-0.125,-0.0152533271205728));
#769=CARTESIAN_POINT('',(-0.0381986211545222,-0.125,-0.0152533271205728));
#770=CARTESIAN_POINT('',(-0.0381986211545222,-0.125,-0.0152533271205728));
#771=CARTESIAN_POINT('',(-0.0381986211545222,-0.115,-0.0152533271205728));
#772=CARTESIAN_POINT('',(6.93889390390723E-18,-0.115,-0.0152533271205728));
#773=CARTESIAN_POINT('',(0.0381986211545222,-0.115,-0.0152533271205728));
#774=CARTESIAN_POINT('',(0.0381986211545222,-0.125,-0.0152533271205728));
#775=CARTESIAN_POINT('',(0.0503254628885691,-0.125,-0.00617416979381994));
#776=CARTESIAN_POINT('',(0.0503254628885691,-0.125,-0.00617416979381994));
#777=CARTESIAN_POINT('',(0.0459665948438832,-0.125,-0.0115508333541063));
#778=CARTESIAN_POINT('',(0.0576859473787221,-0.125,0.00290498753293285));
#779=CARTESIAN_POINT('',(0.0459665948438832,-0.115,-0.0115508333541063));
#780=CARTESIAN_POINT('',(0.0459665948438832,-0.115,-0.0115508333541063));
#781=CARTESIAN_POINT('',(0.0503254628885691,-0.115,-0.00617416979381994));
#782=CARTESIAN_POINT('',(0.0576859473787221,-0.115,0.00290498753293285));
#783=CARTESIAN_POINT('',(0.0576859473787221,-0.125,0.00290498753293285));
#784=CARTESIAN_POINT('',(0.04215,-0.125,0.0155));
#785=CARTESIAN_POINT('',(0.04215,-0.115,0.0155));
#786=CARTESIAN_POINT('',(0.0482501526722007,-0.115,0.0345469981198047));
#787=CARTESIAN_POINT('',(0.0482501526722007,-0.125,0.0345469981198047));
#788=CARTESIAN_POINT('',(0.0482501526722007,-0.125,0.0345469981198047));
#789=CARTESIAN_POINT('',(0.04215,-0.125,0.0155));
#790=CARTESIAN_POINT('',(0.0241250763361003,-0.125,0.0422734990599024));
#791=CARTESIAN_POINT('',(0.0241250763361003,-0.115,0.0422734990599024));
#792=CARTESIAN_POINT('',(0.00305007633610035,-0.115,0.0490231567622862));
#793=CARTESIAN_POINT('',(0.00305007633610035,-0.125,0.0490231567622862));
#794=CARTESIAN_POINT('',(0.00305007633610035,-0.125,0.0490231567622862));
#795=CARTESIAN_POINT('',(0.0241250763361003,-0.125,0.0422734990599024));
#796=CARTESIAN_POINT('',(-0.0241250763361003,-0.125,0.0422734990599024));
#797=CARTESIAN_POINT('',(-0.0241250763361003,-0.125,0.0422734990599024));
#798=CARTESIAN_POINT('',(-0.00305007633610036,-0.125,0.0490231567622862));
#799=CARTESIAN_POINT('',(-0.0482501526722007,-0.125,0.0345469981198047));
#800=CARTESIAN_POINT('',(-0.00305007633610036,-0.115,0.0490231567622862));
#801=CARTESIAN_POINT('',(-0.00305007633610036,-0.115,0.0490231567622862));
#802=CARTESIAN_POINT('',(-0.0241250763361003,-0.115,0.0422734990599024));
#803=CARTESIAN_POINT('',(-0.0482501526722007,-0.115,0.0345469981198047));
#804=CARTESIAN_POINT('',(-0.0482501526722007,-0.125,0.0345469981198047));
#805=CARTESIAN_POINT('',(0.04215,-0.125,0.0275));
#806=CARTESIAN_POINT('',(0.04215,-0.125,0.0275));
#807=CARTESIAN_POINT('',(0.0441,-0.125,0.0275));
#808=CARTESIAN_POINT('',(0.04215,-0.115,0.0275));
#809=CARTESIAN_POINT('',(0.0441,-0.115,0.0275));
#810=CARTESIAN_POINT('',(0.05415,-0.125,0.0155));
#811=CARTESIAN_POINT('',(0.05415,-0.125,0.0155));
#812=CARTESIAN_POINT('',(0.0561,-0.125,0.0155));
#813=CARTESIAN_POINT('',(0.05415,-0.115,0.0155));
#814=CARTESIAN_POINT('',(0.0561,-0.115,0.0155));
#815=CARTESIAN_POINT('',(0.04215,-0.125,0.00350000000000008));
#816=CARTESIAN_POINT('',(0.04215,-0.125,0.00350000000000008));
#817=CARTESIAN_POINT('',(0.0441,-0.125,0.00350000000000008));
#818=CARTESIAN_POINT('',(0.04215,-0.115,0.00350000000000008));
#819=CARTESIAN_POINT('',(0.0441,-0.115,0.00350000000000008));
#820=CARTESIAN_POINT('',(0.04215,-0.125,0.0155));
#821=CARTESIAN_POINT('',(0.04215,-0.125,0.0155));
#822=CARTESIAN_POINT('',(0.04965,-0.125,0.0155));
#823=CARTESIAN_POINT('',(0.04215,-0.115,0.0155));
#824=CARTESIAN_POINT('',(0.04965,-0.115,0.0155));
#825=CARTESIAN_POINT('',(-0.04215,-0.125,0.0275));
#826=CARTESIAN_POINT('',(-0.04215,-0.125,0.0275));
#827=CARTESIAN_POINT('',(-0.0402,-0.125,0.0275));
#828=CARTESIAN_POINT('',(-0.04215,-0.115,0.0275));
#829=CARTESIAN_POINT('',(-0.0402,-0.115,0.0275));
#830=CARTESIAN_POINT('',(-0.04215,-0.125,0.00350000000000008));
#831=CARTESIAN_POINT('',(-0.04215,-0.125,0.00350000000000008));
#832=CARTESIAN_POINT('',(-0.0402,-0.125,0.00350000000000008));
#833=CARTESIAN_POINT('',(-0.04215,-0.115,0.00350000000000008));
#834=CARTESIAN_POINT('',(-0.0402,-0.115,0.00350000000000008));
#835=CARTESIAN_POINT('',(-0.04215,-0.125,0.0155));
#836=CARTESIAN_POINT('',(-0.04215,-0.125,0.0155));
#837=CARTESIAN_POINT('',(-0.03465,-0.125,0.0155));
#838=CARTESIAN_POINT('',(-0.04215,-0.115,0.0155));
#839=CARTESIAN_POINT('',(-0.03465,-0.115,0.0155));
#840=CARTESIAN_POINT('',(-0.05415,-0.125,0.0155));
#841=CARTESIAN_POINT('',(-0.05415,-0.125,0.0155));
#842=CARTESIAN_POINT('',(-0.0522,-0.125,0.0155));
#843=CARTESIAN_POINT('',(-0.05415,-0.115,0.0155));
#844=CARTESIAN_POINT('',(-0.0522,-0.115,0.0155));
#845=CARTESIAN_POINT('',(-0.03015,-0.125,0.0155));
#846=CARTESIAN_POINT('',(-0.03015,-0.125,0.0155));
#847=CARTESIAN_POINT('',(-0.0282,-0.125,0.0155));
#848=CARTESIAN_POINT('',(-0.03015,-0.115,0.0155));
#849=CARTESIAN_POINT('',(-0.0282,-0.115,0.0155));
#850=CARTESIAN_POINT('',(5.63714845604817E-18,-0.125,5.76124968925337E-18));
#851=CARTESIAN_POINT('',(5.63714845604817E-18,-0.125,5.76124968925337E-18));
#852=CARTESIAN_POINT('',(0.00570000000040085,-0.125,5.76124968925337E-18));
#853=CARTESIAN_POINT('',(5.20417042793042E-18,-0.115,5.32827166113562E-18));
#854=CARTESIAN_POINT('',(0.00570000000040085,-0.115,5.32827166113562E-18));
#855=CARTESIAN_POINT('',(0.0056568542491379,-0.125,0.00565685424967952));
#856=CARTESIAN_POINT('',(0.0056568542491379,-0.125,0.00565685424967952));
#857=CARTESIAN_POINT('',(0.0071568542491379,-0.125,0.00565685424967952));
#858=CARTESIAN_POINT('',(0.0056568542491379,-0.115,0.00565685424967952));
#859=CARTESIAN_POINT('',(0.0071568542491379,-0.115,0.00565685424967952));
#860=CARTESIAN_POINT('',(-0.00565685424984686,-0.125,0.00565685424967951));
#861=CARTESIAN_POINT('',(-0.00565685424984686,-0.125,0.00565685424967951));
#862=CARTESIAN_POINT('',(-0.00415685424984686,-0.125,0.00565685424967951));
#863=CARTESIAN_POINT('',(-0.00565685424984686,-0.115,0.00565685424967951));
#864=CARTESIAN_POINT('',(-0.00415685424984686,-0.115,0.00565685424967951));
#865=CARTESIAN_POINT('',(-0.00565685424984685,-0.125,-0.00565685424930526));
#866=CARTESIAN_POINT('',(-0.00565685424984685,-0.125,-0.00565685424930526));
#867=CARTESIAN_POINT('',(-0.00415685424984685,-0.125,-0.00565685424930526));
#868=CARTESIAN_POINT('',(-0.00565685424984685,-0.115,-0.00565685424930526));
#869=CARTESIAN_POINT('',(-0.00415685424984685,-0.115,-0.00565685424930526));
#870=CARTESIAN_POINT('',(0.00565685424913791,-0.125,-0.00565685424930524));
#871=CARTESIAN_POINT('',(0.00565685424913791,-0.125,-0.00565685424930524));
#872=CARTESIAN_POINT('',(0.00715685424913791,-0.125,-0.00565685424930524));
#873=CARTESIAN_POINT('',(0.00565685424913791,-0.115,-0.00565685424930524));
#874=CARTESIAN_POINT('',(0.00715685424913791,-0.115,-0.00565685424930524));
#875=CARTESIAN_POINT('',(-0.04215,-0.125,0.0155));
#876=CARTESIAN_POINT('',(-0.04215,-0.115,0.0155));
#877=CARTESIAN_POINT('',(-0.04215,-0.125,0.0155));
#878=CARTESIAN_POINT('',(0.03015,-0.125,0.0155));
#879=CARTESIAN_POINT('',(0.03015,-0.125,0.0155));
#880=CARTESIAN_POINT('',(0.0321,-0.125,0.0155));
#881=CARTESIAN_POINT('',(0.03015,-0.115,0.0155));
#882=CARTESIAN_POINT('',(0.0321,-0.115,0.0155));
#883=CARTESIAN_POINT('',(5.41222535147184E-18,-0.125,0.0173733364397137));
#884=CARTESIAN_POINT('',(-3.46944695195361E-18,-0.125,0.0394996577023839));
#885=CARTESIAN_POINT('',(-0.0381986211545222,-0.125,-0.00525332712057274));
#886=CARTESIAN_POINT('',(0.0381986211545222,-0.125,-0.00525332712057274));
#887=CARTESIAN_POINT('',(4.97924732335409E-18,-0.115,0.0173733364397137));
#888=CARTESIAN_POINT('',(-3.90242498007136E-18,-0.115,0.0394996577023839));
#889=CARTESIAN_POINT('',(0.0381986211545222,-0.115,-0.00525332712057274));
#890=CARTESIAN_POINT('',(-0.0381986211545222,-0.115,-0.00525332712057274));
#891=CARTESIAN_POINT('',(-3.46944695195361E-18,-0.125,0.0394996577023839));
#892=CARTESIAN_POINT('',(-0.0381986211545222,-0.125,-0.00525332712057274));
#893=CARTESIAN_POINT('',(0.0381986211545222,-0.125,-0.00525332712057274));
#894=MECHANICAL_DESIGN_GEOMETRIC_PRESENTATION_REPRESENTATION('',(#521),
#895);
#895=(
GEOMETRIC_REPRESENTATION_CONTEXT(3)
GLOBAL_UNCERTAINTY_ASSIGNED_CONTEXT((#896))
GLOBAL_UNIT_ASSIGNED_CONTEXT((#899,#898,#897))
REPRESENTATION_CONTEXT('Pusher','TOP_LEVEL_ASSEMBLY_PART')
);
#896=UNCERTAINTY_MEASURE_WITH_UNIT(LENGTH_MEASURE(1.E-8),#899,
'DISTANCE_ACCURACY_VALUE','Maximum Tolerance applied to model');
#897=(
NAMED_UNIT(*)
SI_UNIT($,.STERADIAN.)
SOLID_ANGLE_UNIT()
);
#898=(
NAMED_UNIT(*)
PLANE_ANGLE_UNIT()
SI_UNIT($,.RADIAN.)
);
#899=(
LENGTH_UNIT()
NAMED_UNIT(*)
SI_UNIT($,.METRE.)
);
#900=PRODUCT_DEFINITION_SHAPE('','',#901);
#901=PRODUCT_DEFINITION('','',#903,#902);
#902=PRODUCT_DEFINITION_CONTEXT('',#909,'design');
#903=PRODUCT_DEFINITION_FORMATION_WITH_SPECIFIED_SOURCE('','',#905,
 .NOT_KNOWN.);
#904=PRODUCT_RELATED_PRODUCT_CATEGORY('','',(#905));
#905=PRODUCT('Pusher','Pusher','Pusher',(#907));
#906=PRODUCT_CATEGORY('','');
#907=PRODUCT_CONTEXT('',#909,'mechanical');
#908=APPLICATION_PROTOCOL_DEFINITION('international standard',
'ap242_managed_model_based_3d_engineering',2020,#909);
#909=APPLICATION_CONTEXT('managed model based 3d engineering');
ENDSEC;
END-ISO-10303-21;
